<?xml version="1.0" encoding="UTF-8"?>
<svg id="Layer_1" data-name="Layer 1" xmlns="http://www.w3.org/2000/svg" viewBox="0 0 155.6 23.2">
  <defs>
    <style>
      .cls-1 {
      fill: #414545;
      }

      .cls-2 {
      fill: #119fda;
      }
    </style>
  </defs>
  <g id="Layer_8" data-name="Layer 8">
    <path class="cls-2" d="M18.66,3.6c4.43,3.86,4.89,10.58,1.04,15s-10.58,4.89-15,1.04S-.19,9.06,3.66,4.63c.33-.37.66-.71,1.04-1.04,1.16,1.6,2.32,3.19,3.47,4.79l3.52,4.85c2.33-3.21,4.65-6.41,6.98-9.63Z" style="fill:#119fda;" />
    <path class="cls-2" d="M11.67,9.97c-.61-.84-1.19-1.63-1.77-2.43l-3.45-4.78-.08-.12c-.13-.19-.13-.2.08-.31,1-.58,2.11-.99,3.25-1.19,2.41-.45,4.89-.07,7.05,1.11.08.05.16.09.24.14.03.02.07.06.1.08-1.81,2.49-3.6,4.97-5.43,7.5Z" style="fill:#119fda;" />
    <path class="cls-1" d="M109.45,17.82l-7.98-8.34c0,.19-.02.31-.02.43v6.92c0,.36.03.35-.35.35h-1.14c-.15,0-.22-.05-.2-.2V5.47s0,0,.03,0h.03s.06.05.08.07l7.82,8.15h.06c.05-.12.06-.23.03-.36v-6.77c0-.48-.05-.42.41-.43h1.02c.16,0,.26.05.23.22v11.12c.02.12.01.23-.03.34Z" style="fill:#414545;" />
    <path class="cls-1" d="M137.43,9.35l-.4-.45c-.58-.7-1.39-1.19-2.28-1.35-2.2-.42-4.33,1.04-4.75,3.25-.02.12-.03.24-.05.36-.06.61-.01,1.21.15,1.79.55,1.71,2.14,2.88,3.94,2.89,1.47-.06,2.73-1.05,3.12-2.46.05-.12.05-.24.01-.37h-2.52c-.13,0-.2-.03-.2-.17v-1.25c0-.1.03-.15.15-.15h4.09c.37,0,.34-.02.34.35.01.57-.05,1.14-.16,1.69-.44,2.04-2.11,3.59-4.18,3.87-2.83.43-5.52-1.34-6.25-4.11-1-3.91,1.72-6.63,4.2-7.15,2.04-.43,3.84.02,5.36,1.51.17.17.47.34.48.55.02.21-.3.35-.47.55-.15.19-.36.42-.58.66Z" style="fill:#414545;" />
    <path class="cls-1" d="M93.08,5.44l5.28,11.75h-1.7c-.16,0-.17-.13-.22-.23-.29-.65-.56-1.29-.85-1.96s-.1-.5-.76-.5h-3.8c-.24-.02-.48.13-.55.36-.3.7-.63,1.37-.93,2.07-.06.19-.23.3-.42.27-.49-.02-.97,0-1.5,0,1.79-3.93,3.6-7.8,5.45-11.76ZM93.04,9.19c-.58,1.28-1.14,2.49-1.7,3.73h3.33l-1.63-3.73Z" style="fill:#414545;" />
    <path class="cls-1" d="M117.27,17.19l5.46-11.76,5.26,11.75h-1.7c-.15,0-.17-.09-.21-.2-.24-.58-.5-1.15-.75-1.72-.07-.16-.15-.33-.21-.49-.05-.19-.22-.3-.42-.27-.55.01-1.06,0-1.6,0h-2.52c-.2-.02-.4.1-.45.29-.31.72-.66,1.44-.98,2.17-.05.16-.21.26-.37.23h-1.53ZM121.01,12.91c1.11.06,2.21.05,3.31-.03-.52-1.21-1.06-2.42-1.61-3.68l-1.7,3.72Z" style="fill:#414545;" />
    <path class="cls-1" d="M36.12,5.44c1.77,3.96,3.53,7.84,5.28,11.76h-1.68c-.16,0-.2-.1-.24-.21-.3-.71-.63-1.41-.91-2.12-.06-.24-.29-.41-.55-.37-1.34.02-2.68.02-4.02,0-.21-.02-.42.1-.48.31-.31.71-.65,1.42-.97,2.13-.06.17-.22.28-.4.26-.49-.01-.97,0-1.51,0,1.82-3.94,3.63-7.82,5.47-11.76ZM36.09,9.19l-1.7,3.73h3.33c-.55-1.23-1.07-2.45-1.63-3.73Z" style="fill:#414545;" />
    <path class="cls-1" d="M59.7,11.66v-5.25q0-.27.27-.27h5.54q.27,0,.27.27v1.02q0,.27-.3.27h-3.72c-.45,0-.4-.03-.4.41v1.99c0,.24,0,.26.26.26h3.87c.08,0,.17.03.17.16v1.25c0,.12-.05.16-.16.16h-3.87c-.26,0-.27,0-.27.24v3.19q0,.24.27.24h4.02c.1,0,.15.03.15.14v1.28c0,.1-.03.15-.15.15h-5.82c-.07,0-.13-.05-.13-.1v-5.42h0Z" style="fill:#414545;" />
    <path class="cls-1" d="M141.12,11.66v-5.32c0-.13.03-.2.17-.2h5.57c.41,0,.35.02.35.35v.99c0,.19-.06.24-.24.24h-3.96q-.24,0-.24.27v2.13q0,.24.27.24h3.69c.37,0,.35-.03.35.34v.97q0,.27-.27.27h-3.59c-.49,0-.43-.07-.43.43v2.95q0,.31.31.31h3.98c.1,0,.15.05.15.15v1.28c0,.12-.06.14-.15.14h-5.79c-.13,0-.16-.06-.15-.17v-5.37h-.02Z" style="fill:#414545;" />
    <path class="cls-1" d="M48.82,7.78l-1.22.73c-.08.05-.15.05-.2-.05-.09-.14-.19-.27-.28-.41-.55-.76-2.03-.73-2.61,0-.41.48-.36,1.18.09,1.61.23.21.49.37.78.48.41.17.82.34,1.21.5.42.16.82.38,1.19.64.82.54,1.32,1.44,1.33,2.42.13,1.68-.98,3.21-2.62,3.6-.69.17-1.42.15-2.11-.06-.7-.21-1.3-.65-1.7-1.27-.31-.49-.52-1.04-.63-1.61-.03-.16.02-.23.17-.27.44-.09.87-.19,1.32-.29.12-.02.17,0,.2.13.02.19.06.37.1.56.27,1.08,1.2,1.43,2.01,1.33.99-.13,1.69-1.04,1.55-2.03-.07-.5-.35-.96-.77-1.25-.28-.19-.57-.34-.87-.47-.38-.15-.77-.31-1.14-.48-.48-.2-.92-.49-1.3-.85-1.05-1-1.09-2.66-.12-3.72.72-.79,1.78-1.19,2.85-1.08,1.27.03,2.12.73,2.76,1.82Z" style="fill:#414545;" />
    <path class="cls-1" d="M54.09,17.4c-1.9,0-3.17-1.16-3.51-3.11-.02-.13.03-.16.14-.2l1.39-.31c.1-.02.15.02.16.12.03.22.08.44.14.66.26.9,1.05,1.33,1.95,1.25.86-.07,1.54-.77,1.61-1.63.09-.68-.23-1.34-.82-1.69-.29-.19-.59-.34-.91-.47-.4-.16-.78-.33-1.18-.5-.42-.19-.82-.44-1.15-.76-1.07-1-1.14-2.69-.13-3.77.01-.02.03-.03.05-.05.72-.75,1.75-1.12,2.77-1.02,1.19.06,2.04.68,2.67,1.65.08.14.09.22-.07.3-.34.19-.68.38-1.01.59-.14.09-.21.05-.27-.08-.02-.06-.06-.1-.09-.15-.47-.72-1.39-.99-2.17-.63-.22.09-.42.23-.58.41-.43.47-.41,1.19.06,1.62h.01c.23.21.49.37.78.48.42.17.83.34,1.25.51s.82.38,1.18.64c1.02.73,1.41,1.75,1.29,2.97-.16,1.85-1.72,3.23-3.55,3.17Z" style="fill:#414545;" />
    <path class="cls-1" d="M83.75,13.72l.44-1.08c.83-2.06,1.67-4.12,2.5-6.18.13-.33.06-.31.45-.31h1.5c-1.65,3.97-3.3,7.9-4.96,11.9-1.63-4-3.23-7.92-4.82-11.82.06-.1.15-.07.22-.07h1.28q.29,0,.41.27c.78,1.96,1.56,3.91,2.34,5.87.15.37.29.75.44,1.12.02.12.09.23.19.31Z" style="fill:#414545;" />
    <path class="cls-1" d="M115.18,12.45v4.44q0,.29-.27.3h-1.18c-.17,0-.23-.06-.22-.22s0-.34,0-.5v-8.46c0-.29,0-.3-.33-.3h-1.92q-.29,0-.29-.29v-1.04c0-.24,0-.26.27-.26h6.15c.33,0,.34,0,.34.33v1.02c0,.17-.06.23-.23.23h-1.99c-.31,0-.33,0-.33.34v4.4Z" style="fill:#414545;" />
    <path class="cls-1" d="M71.26,12.46v4.44c0,.3.02.3-.27.3h-1.18c-.15,0-.22-.03-.21-.2v-8.88c0-.43.06-.41-.4-.41h-1.77c-.42,0-.37.01-.37-.4v-.85q0-.34.31-.34h6.24c.12,0,.17.03.17.16v1.25c0,.19-.12.17-.23.17h-2.03q-.27,0-.27.27v4.47Z" style="fill:#414545;" />
  </g>
  <path class="cls-1" d="M154.55,5.3c0,1.47-1.19,2.64-2.69,2.64s-2.71-1.17-2.71-2.64,1.2-2.63,2.72-2.63,2.68,1.15,2.68,2.63ZM149.82,5.3c0,1.17.88,2.1,2.05,2.1,1.14.02,2-.93,2-2.08s-.87-2.11-2.03-2.11-2.02.95-2.02,2.1ZM151.44,6.66h-.61v-2.63c.24-.03.58-.08,1.01-.08.5,0,.72.08.9.21.16.11.27.3.27.56,0,.32-.24.53-.54.62v.03c.26.08.38.29.46.64.08.4.14.54.19.64h-.64c-.08-.1-.13-.32-.21-.64-.05-.27-.21-.4-.54-.4h-.29v1.04ZM151.46,5.19h.29c.34,0,.61-.11.61-.38,0-.24-.18-.4-.56-.4-.16,0-.27.02-.34.03v.75Z" style="fill:#414545;" />
</svg>