<svg width="24" height="24" viewBox="0 0 24 24" fill="none" xmlns="http://www.w3.org/2000/svg">
<circle cx="11.9997" cy="11.9997" r="10.928" fill="#19ABDC" stroke="#1A4967" stroke-width="2.11403"/>
<mask id="path-2-inside-1_131_1609" fill="white">
<path d="M20.7348 3.79356C22.3579 5.52119 23.4321 7.6913 23.8218 10.0295C24.2114 12.3677 23.899 14.7689 22.924 16.9295C21.949 19.0901 20.3551 20.913 18.3441 22.1678C16.333 23.4226 13.995 24.0529 11.6257 23.9789C9.25647 23.9049 6.96235 23.13 5.03348 21.7522C3.1046 20.3744 1.62761 18.4556 0.789278 16.2384C-0.0490558 14.0211 -0.211079 11.6051 0.323697 9.29579C0.858473 6.98648 2.06603 4.88761 3.79366 3.26459L11.9998 11.9997L20.7348 3.79356Z"/>
</mask>
<path d="M20.7348 3.79356C22.3579 5.52119 23.4321 7.6913 23.8218 10.0295C24.2114 12.3677 23.899 14.7689 22.924 16.9295C21.949 19.0901 20.3551 20.913 18.3441 22.1678C16.333 23.4226 13.995 24.0529 11.6257 23.9789C9.25647 23.9049 6.96235 23.13 5.03348 21.7522C3.1046 20.3744 1.62761 18.4556 0.789278 16.2384C-0.0490558 14.0211 -0.211079 11.6051 0.323697 9.29579C0.858473 6.98648 2.06603 4.88761 3.79366 3.26459L11.9998 11.9997L20.7348 3.79356Z" fill="#19ABDC" stroke="#1A4967" stroke-width="4.22806" mask="url(#path-2-inside-1_131_1609)"/>
</svg>
