<svg width="32" height="32" viewBox="0 0 32 32" fill="none" xmlns="http://www.w3.org/2000/svg">
<path d="M27.5876 8.7625V29.9375C27.5876 31.075 26.6626 32 25.5251 32H6.4751C5.3376 32 4.4126 31.075 4.4126 29.9375V2.0625C4.4126 0.925 5.3376 0 6.4751 0H18.8251L27.5876 8.7625Z" fill="#518FF5"/>
<path d="M10.0752 16.0688H21.9252V17.3875H10.0752V16.0688Z" fill="white"/>
<path d="M10.0752 19.0063H21.9252V20.325H10.0752V19.0063Z" fill="white"/>
<path d="M10.0752 21.95H21.9252V23.2687H10.0752V21.95Z" fill="white"/>
<path d="M10.0752 24.8875H18.5064V26.2062H10.0752V24.8875Z" fill="white"/>
<path opacity="0.19" d="M20.0186 8.43125L27.5873 14.5625V8.8L23.2998 6.3125L20.0186 8.43125Z" fill="black"/>
<path d="M27.5877 8.7625H20.8877C19.7502 8.7625 18.8252 7.8375 18.8252 6.7V0L27.5877 8.7625Z" fill="#A6C5FA"/>
</svg>
