<svg width="32" height="32" viewBox="0 0 32 32" fill="none" xmlns="http://www.w3.org/2000/svg">
<path d="M24.5 30.5H7.5C6.70435 30.5 5.94129 30.1839 5.37868 29.6213C4.81607 29.0587 4.5 28.2956 4.5 27.5V4.5C4.5 3.70435 4.81607 2.94129 5.37868 2.37868C5.94129 1.81607 6.70435 1.5 7.5 1.5H21.5L27.5 7.5V27.5C27.5 28.2956 27.1839 29.0587 26.6213 29.6213C26.0587 30.1839 25.2956 30.5 24.5 30.5Z" fill="#E8ECEF"/>
<path d="M4.5 22.5H27.5V27.5C27.5 28.2956 27.1839 29.0587 26.6213 29.6213C26.0587 30.1839 25.2956 30.5 24.5 30.5H7.5C6.70435 30.5 5.94129 30.1839 5.37868 29.6213C4.81607 29.0587 4.5 28.2956 4.5 27.5V22.5Z" fill="#4E4E52"/>
<path d="M27.5 7.5H24.5C23.7044 7.5 22.9413 7.18393 22.3787 6.62132C21.8161 6.05871 21.5 5.29565 21.5 4.5V1.5L27.5 7.5Z" fill="#C7D0DD"/>
<path d="M16.0007 19H15.9999C15.9144 19 15.8278 18.9983 15.7425 18.995C15.6769 18.9924 15.6124 18.977 15.5528 18.9495C15.4931 18.922 15.4395 18.8831 15.3949 18.8349C15.3503 18.7867 15.3156 18.7302 15.2929 18.6686C15.2702 18.607 15.2598 18.5415 15.2623 18.4759C15.2649 18.4103 15.2803 18.3458 15.3078 18.2862C15.3353 18.2266 15.3742 18.1729 15.4224 18.1283C15.4706 18.0837 15.5271 18.0491 15.5887 18.0263C15.6503 18.0036 15.7158 17.9932 15.7814 17.9957C15.8539 17.9986 15.9274 18 16.0002 18H16.0009C16.2234 18 16.4458 17.9867 16.6667 17.9601C16.7984 17.9442 16.931 17.9812 17.0353 18.0631C17.1396 18.1449 17.2072 18.2649 17.2231 18.3965C17.239 18.5282 17.2019 18.6608 17.1201 18.7651C17.0382 18.8694 16.9183 18.937 16.7866 18.9529C16.5258 18.9842 16.2633 19 16.0007 19ZM13.8757 18.6132C13.8152 18.6132 13.7552 18.6022 13.6987 18.5806C13.3719 18.4568 13.0557 18.3067 12.753 18.1319C12.6962 18.0991 12.6464 18.0554 12.6064 18.0032C12.5665 17.9511 12.5372 17.8917 12.5202 17.8282C12.5032 17.7648 12.4989 17.6986 12.5075 17.6336C12.5161 17.5685 12.5375 17.5057 12.5703 17.4488C12.6032 17.392 12.6469 17.3422 12.699 17.3022C12.7511 17.2623 12.8106 17.233 12.874 17.216C12.9375 17.199 13.0036 17.1947 13.0687 17.2033C13.1338 17.2119 13.1966 17.2333 13.2534 17.2661C13.5092 17.4139 13.7765 17.5408 14.0528 17.6454C14.1623 17.6868 14.2538 17.7653 14.3114 17.8672C14.369 17.9691 14.389 18.088 14.368 18.2032C14.3469 18.3184 14.2861 18.4225 14.1961 18.4974C14.1061 18.5723 13.9927 18.6133 13.8757 18.6132ZM18.5754 18.4211C18.4618 18.4212 18.3516 18.3827 18.2629 18.3118C18.1741 18.241 18.1121 18.1421 18.0871 18.0313C18.0621 17.9206 18.0755 17.8046 18.1251 17.7025C18.1747 17.6003 18.2577 17.5182 18.3602 17.4694C18.6268 17.3425 18.8828 17.1943 19.1256 17.0263C19.1796 16.9883 19.2405 16.9613 19.305 16.947C19.3694 16.9326 19.4361 16.9312 19.5011 16.9427C19.5661 16.9543 19.6281 16.9786 19.6837 17.0142C19.7393 17.0499 19.7872 17.0962 19.8248 17.1505C19.8624 17.2048 19.8888 17.2659 19.9026 17.3305C19.9164 17.3951 19.9173 17.4617 19.9052 17.5266C19.8931 17.5915 19.8682 17.6534 19.8321 17.7086C19.796 17.7639 19.7493 17.8115 19.6947 17.8486C19.4076 18.0472 19.105 18.2224 18.7898 18.3724C18.7227 18.4045 18.6493 18.4211 18.5749 18.4211H18.5754ZM11.5122 16.9821C11.4415 16.9822 11.3716 16.9673 11.3071 16.9384C11.2426 16.9094 11.185 16.867 11.1382 16.8141C10.9065 16.5531 10.6961 16.2739 10.509 15.9793C10.4727 15.9239 10.4478 15.8618 10.4358 15.7967C10.4237 15.7315 10.4247 15.6647 10.4387 15.5999C10.4527 15.5352 10.4794 15.4739 10.5173 15.4196C10.5552 15.3652 10.6035 15.319 10.6595 15.2835C10.7154 15.248 10.7778 15.224 10.8431 15.2128C10.9084 15.2016 10.9752 15.2035 11.0398 15.2184C11.1043 15.2333 11.1652 15.2608 11.219 15.2995C11.2728 15.3381 11.3184 15.387 11.3532 15.4434C11.5116 15.6929 11.6898 15.9292 11.886 16.1502C11.9499 16.2222 11.9917 16.3112 12.0063 16.4065C12.0209 16.5017 12.0076 16.5991 11.9681 16.687C11.9287 16.7749 11.8646 16.8495 11.7837 16.9019C11.7029 16.9542 11.6086 16.9821 11.5122 16.9821ZM20.7974 16.6038C20.7045 16.6037 20.6134 16.5778 20.5344 16.5289C20.4555 16.48 20.3917 16.41 20.3502 16.3269C20.3088 16.2438 20.2913 16.1507 20.2998 16.0582C20.3082 15.9657 20.3423 15.8774 20.3982 15.8032C20.5758 15.567 20.7342 15.3169 20.8719 15.0553C20.9336 14.9379 21.0394 14.8499 21.166 14.8105C21.2927 14.7712 21.4298 14.7837 21.5471 14.8455C21.6645 14.9072 21.7526 15.013 21.7919 15.1396C21.8313 15.2663 21.8187 15.4034 21.757 15.5207C21.5944 15.8298 21.4072 16.1253 21.1972 16.4044C21.1506 16.4664 21.0902 16.5168 21.0207 16.5514C20.9513 16.586 20.8747 16.604 20.7971 16.6038H20.7974ZM10.1739 14.4419C10.0621 14.4418 9.95363 14.4043 9.86569 14.3353C9.77776 14.2664 9.71546 14.17 9.68873 14.0615C9.60529 13.7225 9.54926 13.3773 9.52116 13.0292C9.51508 12.9634 9.52212 12.897 9.54189 12.8338C9.56165 12.7707 9.59374 12.7121 9.63631 12.6615C9.67887 12.6109 9.73106 12.5692 9.78985 12.5389C9.84864 12.5085 9.91286 12.4902 9.97879 12.4849C10.0447 12.4795 10.1111 12.4873 10.174 12.5078C10.2368 12.5283 10.295 12.5611 10.3452 12.6042C10.3953 12.6474 10.4364 12.7001 10.466 12.7592C10.4957 12.8183 10.5133 12.8828 10.5179 12.9487C10.5417 13.2432 10.5891 13.5352 10.6597 13.8221C10.6778 13.8957 10.6789 13.9726 10.6629 14.0467C10.6469 14.1209 10.6143 14.1904 10.5675 14.2501C10.5207 14.3098 10.461 14.3581 10.3928 14.3913C10.3246 14.4245 10.2497 14.4418 10.1739 14.4419ZM21.9239 13.9622C21.8514 13.9623 21.7799 13.9466 21.7141 13.9162C21.6484 13.8859 21.59 13.8416 21.543 13.7865C21.496 13.7314 21.4615 13.6668 21.4419 13.5971C21.4224 13.5273 21.4182 13.4542 21.4296 13.3827C21.4764 13.0908 21.5 12.7956 21.4999 12.5V12.4866C21.4999 12.354 21.5526 12.2268 21.6464 12.1331C21.7401 12.0393 21.8673 11.9866 21.9999 11.9866C22.1325 11.9866 22.2597 12.0393 22.3535 12.1331C22.4472 12.2268 22.4999 12.354 22.4999 12.4866V12.5C22.4999 12.8489 22.4722 13.1972 22.4169 13.5417C22.398 13.659 22.3381 13.7657 22.2478 13.8428C22.1574 13.9199 22.0426 13.9623 21.9238 13.9625L21.9239 13.9622ZM10.1717 11.5707C10.0959 11.5706 10.0211 11.5534 9.953 11.5203C9.88487 11.4871 9.82514 11.4389 9.77834 11.3794C9.73153 11.3198 9.69886 11.2504 9.68278 11.1763C9.66671 11.1023 9.66765 11.0256 9.68554 10.9519C9.76861 10.6123 9.87905 10.28 10.0158 9.95819C10.0415 9.89776 10.0788 9.84298 10.1257 9.79699C10.1726 9.75099 10.228 9.71467 10.2889 9.69011C10.3498 9.66555 10.415 9.65323 10.4806 9.65384C10.5463 9.65445 10.6112 9.66799 10.6716 9.69369C10.732 9.71938 10.7868 9.75672 10.8328 9.80359C10.8788 9.85045 10.9151 9.90592 10.9397 9.96681C10.9642 10.0277 10.9766 10.0928 10.9759 10.1585C10.9753 10.2242 10.9618 10.2891 10.9361 10.3495C10.8205 10.6214 10.7272 10.9022 10.657 11.1891C10.6305 11.2979 10.5682 11.3946 10.4802 11.4637C10.3923 11.5329 10.2836 11.5706 10.1717 11.5707ZM21.6887 11.0875C21.5839 11.0875 21.4818 11.0546 21.3968 10.9934C21.3118 10.9322 21.2481 10.8459 21.2148 10.7466C21.1206 10.4667 21.0039 10.1949 20.866 9.93375C20.8334 9.87556 20.8127 9.81143 20.8052 9.74513C20.7978 9.67884 20.8037 9.61172 20.8226 9.54774C20.8414 9.48375 20.8729 9.42419 20.9152 9.37257C20.9574 9.32094 21.0096 9.27829 21.0686 9.24713C21.1276 9.21597 21.1922 9.19693 21.2586 9.19113C21.3251 9.18533 21.3921 9.19289 21.4555 9.21336C21.519 9.23383 21.5778 9.2668 21.6284 9.31033C21.6789 9.35386 21.7202 9.40706 21.7499 9.46681C21.9131 9.77571 22.051 10.0973 22.1624 10.4284C22.1876 10.5036 22.1946 10.5837 22.1827 10.6621C22.1709 10.7406 22.1406 10.815 22.0943 10.8794C22.048 10.9438 21.987 10.9963 21.9165 11.0325C21.8459 11.0688 21.7677 11.0877 21.6884 11.0877L21.6887 11.0875ZM11.5038 9.02675C11.4075 9.02672 11.3133 8.9989 11.2325 8.94662C11.1516 8.89435 11.0876 8.81985 11.048 8.73207C11.0085 8.64429 10.9952 8.54697 11.0096 8.45179C11.024 8.3566 11.0656 8.26761 11.1294 8.1955C11.3607 7.93423 11.6124 7.69179 11.8822 7.4705C11.9849 7.38752 12.1162 7.3485 12.2475 7.36195C12.3788 7.3754 12.4995 7.44024 12.5832 7.54231C12.6669 7.64438 12.7068 7.77541 12.6943 7.90681C12.6818 8.03822 12.6178 8.15934 12.5163 8.24375C12.2877 8.43123 12.0744 8.63665 11.8785 8.85806C11.8316 8.91117 11.7739 8.95369 11.7093 8.98277C11.6447 9.01186 11.5746 9.02685 11.5038 9.02675ZM20.148 8.665C20.0192 8.66516 19.8953 8.61541 19.8024 8.52619C19.5888 8.32185 19.3592 8.13491 19.1158 7.96712C19.009 7.89091 18.9365 7.77582 18.9138 7.64663C18.8912 7.51745 18.9202 7.38453 18.9946 7.27653C19.069 7.16852 19.1828 7.09408 19.3116 7.06924C19.4404 7.0444 19.5738 7.07116 19.683 7.14375C19.9704 7.34179 20.2415 7.5625 20.4937 7.80375C20.5658 7.87277 20.6156 7.96181 20.6367 8.05939C20.6578 8.15697 20.6492 8.25863 20.612 8.35127C20.5748 8.44392 20.5107 8.52331 20.428 8.57923C20.3453 8.63514 20.2477 8.66501 20.1479 8.665H20.148ZM13.8636 7.39162C13.7466 7.39171 13.6334 7.35079 13.5434 7.27599C13.4535 7.20118 13.3927 7.09723 13.3715 6.9822C13.3503 6.86718 13.3701 6.74837 13.4275 6.64644C13.4848 6.54451 13.5761 6.46591 13.6854 6.42431C14.0119 6.29992 14.3479 6.20218 14.6902 6.13206C14.8198 6.10638 14.9542 6.133 15.0642 6.20611C15.1742 6.27923 15.2508 6.3929 15.2773 6.5223C15.3038 6.6517 15.278 6.78631 15.2055 6.89675C15.1331 7.00719 15.0199 7.08449 14.8907 7.11175C14.6014 7.17102 14.3175 7.2536 14.0416 7.35869C13.9848 7.38041 13.9244 7.39158 13.8636 7.39162ZM17.6597 7.23262C17.6129 7.23261 17.5664 7.22602 17.5214 7.21306C17.2376 7.13164 16.9476 7.07327 16.6544 7.0385C16.5891 7.03077 16.5261 7.01028 16.4688 6.97818C16.4115 6.94609 16.3611 6.90303 16.3205 6.85146C16.2798 6.79989 16.2498 6.74082 16.2319 6.67762C16.2141 6.61442 16.2089 6.54833 16.2167 6.48312C16.2244 6.41792 16.2449 6.35487 16.277 6.29759C16.3091 6.2403 16.3521 6.1899 16.4037 6.14926C16.4553 6.10861 16.5143 6.07853 16.5775 6.06071C16.6407 6.0429 16.7068 6.03771 16.772 6.04544C17.1189 6.08647 17.4618 6.15545 17.7975 6.25169C17.9134 6.28487 18.0135 6.35881 18.0792 6.4599C18.1449 6.56099 18.1718 6.68241 18.1551 6.8018C18.1383 6.92119 18.079 7.03052 17.9881 7.10964C17.8971 7.18876 17.7806 7.23234 17.66 7.23237L17.6597 7.23262Z" fill="#D1D1D2"/>
<path d="M14.5 14.5V10.5L18.5 12.5L14.5 14.5Z" fill="#EA2828"/>
<path d="M13.5 26H12.5C12.3674 26 12.2402 26.0527 12.1464 26.1464C12.0527 26.2402 12 26.3674 12 26.5C12 26.6326 12.0527 26.7598 12.1464 26.8536C12.2402 26.9473 12.3674 27 12.5 27H12.9406C12.7998 27.5761 12.4258 28 12 28C11.4579 28 11 27.3131 11 26.5C11 25.6869 11.4579 25 12 25C12.0993 25.0005 12.1973 25.023 12.2868 25.0661C12.4068 25.1226 12.5443 25.1292 12.6691 25.0843C12.7939 25.0395 12.8957 24.9469 12.9523 24.827C13.0088 24.707 13.0154 24.5695 12.9706 24.4447C12.9257 24.3199 12.8331 24.218 12.7132 24.1615C12.4904 24.0554 12.2468 24.0002 12 24C10.8972 24 10 25.1215 10 26.5C10 27.8785 10.8972 29 12 29C13.1028 29 14 27.8785 14 26.5C14 26.3674 13.9473 26.2402 13.8536 26.1464C13.7598 26.0527 13.6326 26 13.5 26Z" fill="white"/>
<path d="M17.5 25C17.6326 25 17.7598 24.9473 17.8536 24.8536C17.9473 24.7598 18 24.6326 18 24.5C18 24.3674 17.9473 24.2402 17.8536 24.1464C17.7598 24.0527 17.6326 24 17.5 24H15.5C15.3674 24 15.2402 24.0527 15.1464 24.1464C15.0527 24.2402 15 24.3674 15 24.5C15 24.6326 15.0527 24.7598 15.1464 24.8536C15.2402 24.9473 15.3674 25 15.5 25H16V28H15.5C15.3674 28 15.2402 28.0527 15.1464 28.1464C15.0527 28.2402 15 28.3674 15 28.5C15 28.6326 15.0527 28.7598 15.1464 28.8536C15.2402 28.9473 15.3674 29 15.5 29H17.5C17.6326 29 17.7598 28.9473 17.8536 28.8536C17.9473 28.7598 18 28.6326 18 28.5C18 28.3674 17.9473 28.2402 17.8536 28.1464C17.7598 28.0527 17.6326 28 17.5 28H17V25H17.5Z" fill="white"/>
<path d="M21.5 24H19.5C19.3674 24 19.2402 24.0527 19.1464 24.1464C19.0527 24.2402 19 24.3674 19 24.5V28.5C19 28.6326 19.0527 28.7598 19.1464 28.8536C19.2402 28.9473 19.3674 29 19.5 29C19.6326 29 19.7598 28.9473 19.8536 28.8536C19.9473 28.7598 20 28.6326 20 28.5V27H20.5C20.6326 27 20.7598 26.9473 20.8536 26.8536C20.9473 26.7598 21 26.6326 21 26.5C21 26.3674 20.9473 26.2402 20.8536 26.1464C20.7598 26.0527 20.6326 26 20.5 26H20V25H21.5C21.6326 25 21.7598 24.9473 21.8536 24.8536C21.9473 24.7598 22 24.6326 22 24.5C22 24.3674 21.9473 24.2402 21.8536 24.1464C21.7598 24.0527 21.6326 24 21.5 24Z" fill="white"/>
</svg>
