<svg width="16" height="15" viewBox="0 0 16 15" fill="none" xmlns="http://www.w3.org/2000/svg">
<path d="M7.99998 14.0001H14.75M1.25 14H2.50591C2.87279 14 3.05624 14 3.22887 13.9586C3.38192 13.9219 3.52824 13.8613 3.66245 13.779C3.81382 13.6862 3.94354 13.5565 4.20296 13.2971L13.625 3.87505C14.2463 3.25373 14.2463 2.24637 13.625 1.62505C13.0037 1.00373 11.9963 1.00373 11.375 1.62505L1.95295 11.0471C1.69352 11.3065 1.5638 11.4362 1.47104 11.5876C1.3888 11.7218 1.32819 11.8681 1.29145 12.0212C1.25 12.1938 1.25 12.3773 1.25 12.7442V14Z" stroke="#1C1C1E" stroke-width="1.5" stroke-linecap="round" stroke-linejoin="round"/>
</svg>
