<?xml version="1.0" encoding="UTF-8"?>
<svg version="1.1" xmlns="http://www.w3.org/2000/svg" width="512" height="512">
<path d="M0 0 C4.7245865 4.60344325 6.65789076 7.37071378 6.89160156 14.01318359 C6.89097154 16.26670081 6.86856669 18.52028311 6.828125 20.7734375 C6.82246521 21.96353424 6.81680542 23.15363098 6.81097412 24.37979126 C6.78863451 28.17027486 6.73843963 31.95980345 6.6875 35.75 C6.66743201 38.32420507 6.64918177 40.898425 6.6328125 43.47265625 C6.58877745 49.77376178 6.52188805 56.07431265 6.4375 62.375 C7.53486795 62.37131283 8.63223591 62.36762566 9.76285744 62.36382675 C36.45288341 62.27506484 63.14289026 62.20931423 89.83303261 62.16775131 C102.74014148 62.14711803 115.64715289 62.11898265 128.55419922 62.07324219 C139.80277234 62.03339805 151.0512749 62.00757276 162.29991663 61.99864602 C168.25709732 61.99342721 174.21407612 61.98114489 180.17119217 61.95207977 C185.77718506 61.92494916 191.3828927 61.91655035 196.98894501 61.92256927 C199.04728876 61.92146799 201.10564196 61.91350027 203.16392899 61.8981781 C205.97353889 61.87828726 208.78207066 61.88305769 211.59170532 61.89398193 C212.40689121 61.88233057 213.2220771 61.8706792 214.06196558 61.85867476 C219.30584668 61.91381561 222.34331501 62.81544766 226.4375 66.375 C231.81911433 71.93213204 230.99654015 78.38497793 230.94543457 85.66015625 C230.95004529 87.03049889 230.95639937 88.40083658 230.96434355 89.77116394 C230.98103679 93.53148157 230.97279076 97.29139297 230.96039867 101.05171204 C230.95135041 105.10904692 230.96531679 109.16631182 230.97631836 113.22363281 C230.99411058 121.1698272 230.99026049 129.11587052 230.9786678 137.06207085 C230.96963651 143.51974605 230.96840815 149.97737889 230.97276306 156.43505859 C230.97337599 157.35393325 230.97398893 158.2728079 230.97462043 159.21952724 C230.97589933 161.08616767 230.97719618 162.95280807 230.9785108 164.81944847 C230.98991865 182.32547768 230.97679967 199.83142312 230.95530933 217.33743858 C230.93743816 232.36041768 230.94054221 247.38327314 230.95898438 262.40625 C230.98038745 279.84937069 230.98882 297.29241794 230.97653532 314.73554993 C230.97526112 316.59534708 230.97400363 318.45514424 230.97276306 320.31494141 C230.97214596 321.23001182 230.97152886 322.14508223 230.97089306 323.08788204 C230.96743847 329.5382609 230.97327084 335.9885932 230.98268127 342.43896484 C230.99389639 350.29918314 230.99087151 358.15924163 230.9695583 366.0194416 C230.95904126 370.03034384 230.95493703 374.04097959 230.96815491 378.05187988 C230.98007136 381.72338022 230.97352917 385.39436698 230.9522447 389.06582069 C230.94565762 391.0235512 230.95872151 392.98131733 230.97247362 394.93901062 C230.87527323 405.7924918 230.87527323 405.7924918 226.4375 410.375 C221.55345012 414.62127398 217.765674 414.94426195 211.59170532 414.85601807 C210.71269857 414.85943577 209.83369181 414.86285347 208.92804849 414.86637473 C205.98897045 414.8729521 203.05081001 414.85097983 200.11181641 414.82910156 C198.00258404 414.82797305 195.8933501 414.82860701 193.78411865 414.83087158 C188.06137828 414.83201952 182.33897306 414.80849696 176.6163106 414.78057575 C170.63455433 414.7555756 164.65279044 414.75322118 158.67098999 414.74847412 C147.34508934 414.73604031 136.01934307 414.70321306 124.69351041 414.66307616 C111.7988379 414.6183712 98.90415802 414.59637459 86.00942731 414.57629442 C59.48536594 414.53448091 32.96144162 414.46412082 6.4375 414.375 C6.44638245 415.03819244 6.45526489 415.70138489 6.4644165 416.38467407 C6.55299956 423.29526134 6.61328015 430.20568696 6.65722656 437.11669922 C6.67732563 439.69489088 6.70460941 442.27303704 6.73925781 444.85107422 C6.78784847 448.55968461 6.81048658 452.26769156 6.828125 455.9765625 C6.84877014 457.12677887 6.86941528 458.27699524 6.89068604 459.46206665 C6.89244829 465.76549316 6.71238411 469.60670912 2.4375 474.375 C-1.11056922 477.83209309 -3.95545083 478.64334603 -8.75979614 478.74324036 C-19.64843256 478.58665464 -30.30565266 476.13420959 -40.96826172 474.1081543 C-43.43151329 473.64898922 -45.89495357 473.19083549 -48.35856628 472.73361206 C-54.3292667 471.62266154 -60.297831 470.50085473 -66.26549296 469.37373813 C-73.2234392 468.06001213 -80.18361709 466.75830131 -87.14387371 465.45688186 C-99.56359638 463.1341817 -111.9811025 460.79983935 -124.39746094 458.45922852 C-136.43308769 456.1903929 -148.47046153 453.93112606 -160.50976562 451.68188477 C-173.64282862 449.22828827 -186.77491311 446.7695726 -199.90532315 444.30181438 C-201.30584057 444.03860324 -202.70635831 443.77539379 -204.10687637 443.51218605 C-204.79584823 443.382695 -205.48482008 443.25320396 -206.19466987 443.11978894 C-211.04111888 442.20922922 -215.8882176 441.30218161 -220.73556137 440.39639854 C-227.25913738 439.1772187 -233.78100127 437.94916455 -240.30179787 436.71519089 C-242.69459577 436.26371351 -245.08791749 435.81500221 -247.48179054 435.36926079 C-250.74909231 434.76040145 -254.01434155 434.14152573 -257.27926636 433.52006531 C-258.70032222 433.25886124 -258.70032222 433.25886124 -260.15008628 432.99238032 C-268.07191158 431.46523197 -274.065351 429.657456 -279.5625 423.375 C-281.8982718 419.87134231 -281.81521968 418.48372541 -281.82256222 414.3406868 C-281.82962781 413.07107455 -281.8366934 411.80146231 -281.8439731 410.49337697 C-281.84172152 409.07641523 -281.839275 407.65945378 -281.83665466 406.24249268 C-281.84110472 404.7434623 -281.84641799 403.24443428 -281.85252339 401.74540973 C-281.86674201 397.61551117 -281.86836595 393.48568773 -281.86792648 389.3557682 C-281.86957131 384.9057318 -281.88263159 380.45572665 -281.89411926 376.00570679 C-281.9169949 366.27018819 -281.92489269 356.53469135 -281.92994571 346.79914951 C-281.93319989 340.72232551 -281.9397207 334.64550786 -281.9469471 328.56868744 C-281.96651673 311.74985075 -281.98291869 294.93101998 -281.98582363 278.11217117 C-281.9860112 277.03532697 -281.98619877 275.95848278 -281.98639202 274.84900694 C-281.98675828 272.66589085 -281.98712198 270.48277477 -281.98748314 268.29965869 C-281.98766595 267.21592757 -281.98784876 266.13219645 -281.98803711 265.015625 C-281.98821766 263.9305739 -281.98839821 262.8455228 -281.98858423 261.72759137 C-281.99212631 244.14350412 -282.0191492 226.55953931 -282.056535 208.97549453 C-282.09459501 190.93019116 -282.11398094 172.88494856 -282.11428314 154.83960414 C-282.11486825 144.70458509 -282.12339448 134.56971206 -282.15228081 124.43473053 C-282.17676392 115.80481772 -282.18409842 107.17510417 -282.16903328 98.54516605 C-282.16185164 94.14120269 -282.16277549 89.73763304 -282.18544388 85.33371353 C-282.20599885 81.3017772 -282.20346666 77.27053812 -282.18256903 73.23860964 C-282.17906739 71.78030197 -282.1840128 70.32194435 -282.19827347 68.86370221 C-282.31024315 56.62496442 -282.31024315 56.62496442 -279.33657932 52.14747238 C-275.24564801 48.05891082 -271.95042858 46.18936239 -266.29100037 45.13166809 C-265.2388352 44.92997576 -264.18667004 44.72828342 -263.10262108 44.5204792 C-261.94912477 44.30980749 -260.79562847 44.09913578 -259.60717773 43.88208008 C-257.75286605 43.53098081 -257.75286605 43.53098081 -255.86109352 43.17278862 C-252.41186051 42.5198642 -248.96043616 41.87925238 -245.50855947 41.24047446 C-241.75689914 40.54394534 -238.00739822 39.83597511 -234.25767517 39.12910461 C-228.495674 38.04398462 -222.73294973 36.96282948 -216.9694255 35.88582844 C-204.85857131 33.62255313 -192.75323693 31.33069413 -180.64892578 29.03271484 C-162.27320404 25.54515426 -143.89423674 22.07515036 -125.51270485 18.61834526 C-114.90814514 16.62380128 -104.30450856 14.62457804 -93.70288086 12.61450195 C-84.24665785 10.82159991 -74.78891594 9.03698444 -65.32923025 7.26243907 C-60.38173525 6.33406951 -55.43504745 5.4018377 -50.49019051 4.4595089 C-45.89068908 3.58313701 -41.28921514 2.71798764 -36.6860199 1.86123657 C-35.01197213 1.54767992 -33.33866062 1.23015976 -31.66621208 0.90818214 C-7.98809386 -3.64369194 -7.98809386 -3.64369194 0 0 Z " fill="#2E7D32" transform="translate(281.5625,17.625)"/>
<path d="M0 0 C27.79851394 -0.09026168 55.5969094 -0.1639596 83.39553261 -0.20724869 C96.30264148 -0.22788197 109.20965289 -0.25601735 122.11669922 -0.30175781 C133.36527234 -0.34160195 144.6137749 -0.36742724 155.86241663 -0.37635398 C161.81959732 -0.38157279 167.77657612 -0.39385511 173.73369217 -0.42292023 C179.33968506 -0.45005084 184.9453927 -0.45844965 190.55144501 -0.45243073 C192.60978876 -0.45353201 194.66814196 -0.46149973 196.72642899 -0.4768219 C199.53603889 -0.49671274 202.34457066 -0.49194231 205.15420532 -0.48101807 C205.96939121 -0.49266943 206.7845771 -0.5043208 207.62446558 -0.51632524 C212.86834668 -0.46118439 215.90581501 0.44044766 220 4 C225.38161433 9.55713204 224.55904015 16.00997793 224.50793457 23.28515625 C224.51254529 24.65549889 224.51889937 26.02583658 224.52684355 27.39616394 C224.54353679 31.15648157 224.53529076 34.91639297 224.52289867 38.67671204 C224.51385041 42.73404692 224.52781679 46.79131182 224.53881836 50.84863281 C224.55661058 58.7948272 224.55276049 66.74087052 224.5411678 74.68707085 C224.53213651 81.14474605 224.53090815 87.60237889 224.53526306 94.06005859 C224.53587599 94.97893325 224.53648893 95.8978079 224.53712043 96.84452724 C224.53839933 98.71116767 224.53969618 100.57780807 224.5410108 102.44444847 C224.55241865 119.95047768 224.53929967 137.45642312 224.51780933 154.96243858 C224.49993816 169.98541768 224.50304221 185.00827314 224.52148438 200.03125 C224.54288745 217.47437069 224.55132 234.91741794 224.53903532 252.36054993 C224.53776112 254.22034708 224.53650363 256.08014424 224.53526306 257.93994141 C224.53433741 259.31254702 224.53433741 259.31254702 224.53339306 260.71288204 C224.52993847 267.1632609 224.53577084 273.6135932 224.54518127 280.06396484 C224.55639639 287.92418314 224.55337151 295.78424163 224.5320583 303.6444416 C224.52154126 307.65534384 224.51743703 311.66597959 224.53065491 315.67687988 C224.54257136 319.34838022 224.53602917 323.01936698 224.5147447 326.69082069 C224.50815762 328.6485512 224.52122151 330.60631733 224.53497362 332.56401062 C224.43777323 343.4174918 224.43777323 343.4174918 220 348 C215.11595012 352.24627398 211.328174 352.56926195 205.15420532 352.48101807 C204.27519857 352.48443577 203.39619181 352.48785347 202.49054849 352.49137473 C199.55147045 352.4979521 196.61331001 352.47597983 193.67431641 352.45410156 C191.56508404 352.45297305 189.4558501 352.45360701 187.34661865 352.45587158 C181.62387828 352.45701952 175.90147306 352.43349696 170.1788106 352.40557575 C164.19705433 352.3805756 158.21529044 352.37822118 152.23348999 352.37347412 C140.90758934 352.36104031 129.58184307 352.32821306 118.25601041 352.28807616 C105.3613379 352.2433712 92.46665802 352.22137459 79.57192731 352.20129442 C53.04784622 352.15948088 26.52397678 352.08612326 0 352 C0 330.88 0 309.76 0 288 C25.625 287.6875 25.625 287.6875 33.68603516 287.61206055 C35.8037288 287.57976371 37.92140639 287.54638901 40.0390625 287.51171875 C41.67717896 287.50235291 41.67717896 287.50235291 43.34838867 287.49279785 C48.9421036 287.38707472 53.21718128 287.24099541 58 284 C62.12712836 279.53823961 63.31579995 276.17205257 63.21484375 270.05859375 C62.74129167 265.52110378 60.77725298 262.718959 57.5 259.6875 C53.88443576 257.24699414 51.14574465 256.86687703 46.88598633 256.79467773 C45.84513382 256.77473251 44.80428131 256.75478729 43.73188782 256.73423767 C42.60993515 256.71752518 41.48798248 256.70081268 40.33203125 256.68359375 C38.60710701 256.6524221 38.60710701 256.6524221 36.84733582 256.62062073 C33.16911875 256.55516658 29.49082952 256.49625926 25.8125 256.4375 C23.32095604 256.39431087 20.82941941 256.35069645 18.33789062 256.30664062 C12.22533335 256.1986881 6.11272233 256.09958334 0 256 C0 245.44 0 234.88 0 224 C3.68414062 223.96261719 7.36828125 223.92523438 11.1640625 223.88671875 C14.73850386 223.84048648 18.31284121 223.78925884 21.88720703 223.73754883 C24.36826235 223.70432764 26.84939273 223.67628702 29.33056641 223.65356445 C32.90039001 223.6199678 36.46952745 223.56764717 40.0390625 223.51171875 C41.14553131 223.50532883 42.25200012 223.4989389 43.39199829 223.49235535 C48.96999286 223.3862541 53.23077814 223.23178173 58 220 C62.12712836 215.53823961 63.31579995 212.17205257 63.21484375 206.05859375 C62.74129167 201.52110378 60.77725298 198.718959 57.5 195.6875 C53.88443576 193.24699414 51.14574465 192.86687703 46.88598633 192.79467773 C45.84513382 192.77473251 44.80428131 192.75478729 43.73188782 192.73423767 C42.60993515 192.71752518 41.48798248 192.70081268 40.33203125 192.68359375 C38.60710701 192.6524221 38.60710701 192.6524221 36.84733582 192.62062073 C33.16911875 192.55516658 29.49082952 192.49625926 25.8125 192.4375 C23.32095604 192.39431087 20.82941941 192.35069645 18.33789062 192.30664062 C12.22533335 192.1986881 6.11272233 192.09958334 0 192 C0 181.44 0 170.88 0 160 C3.68414062 159.96261719 7.36828125 159.92523438 11.1640625 159.88671875 C14.73850386 159.84048648 18.31284121 159.78925884 21.88720703 159.73754883 C24.36826235 159.70432764 26.84939273 159.67628702 29.33056641 159.65356445 C32.90039001 159.6199678 36.46952745 159.56764717 40.0390625 159.51171875 C41.14553131 159.50532883 42.25200012 159.4989389 43.39199829 159.49235535 C48.96999286 159.3862541 53.23077814 159.23178173 58 156 C62.12712836 151.53823961 63.31579995 148.17205257 63.21484375 142.05859375 C62.74129167 137.52110378 60.77725298 134.718959 57.5 131.6875 C53.88443576 129.24699414 51.14574465 128.86687703 46.88598633 128.79467773 C45.84513382 128.77473251 44.80428131 128.75478729 43.73188782 128.73423767 C42.60993515 128.71752518 41.48798248 128.70081268 40.33203125 128.68359375 C38.60710701 128.6524221 38.60710701 128.6524221 36.84733582 128.62062073 C33.16911875 128.55516658 29.49082952 128.49625926 25.8125 128.4375 C23.32095604 128.39431087 20.82941941 128.35069645 18.33789062 128.30664062 C12.22533335 128.1986881 6.11272233 128.09958334 0 128 C0 117.44 0 106.88 0 96 C3.68414062 95.96261719 7.36828125 95.92523438 11.1640625 95.88671875 C14.73850386 95.84048648 18.31284121 95.78925884 21.88720703 95.73754883 C24.36826235 95.70432764 26.84939273 95.67628702 29.33056641 95.65356445 C32.90039001 95.6199678 36.46952745 95.56764717 40.0390625 95.51171875 C41.14553131 95.50532883 42.25200012 95.4989389 43.39199829 95.49235535 C48.96999286 95.3862541 53.23077814 95.23178173 58 92 C62.12712836 87.53823961 63.31579995 84.17205257 63.21484375 78.05859375 C62.74129167 73.52110378 60.77725298 70.718959 57.5 67.6875 C53.88443576 65.24699414 51.14574465 64.86687703 46.88598633 64.79467773 C45.83060669 64.77449585 44.77522705 64.75431396 43.68786621 64.73352051 C42.58044067 64.71704468 41.47301514 64.70056885 40.33203125 64.68359375 C38.80322327 64.65561707 38.80322327 64.65561707 37.24353027 64.6270752 C33.43327572 64.55873426 29.62287733 64.49861317 25.8125 64.4375 C17.294375 64.293125 8.77625 64.14875 0 64 C0 42.88 0 21.76 0 0 Z " fill="#EBEEF0" transform="translate(288,80)"/>
<path d="M0 0 C5.18529363 2.2905471 9.56243721 5.34074925 11.6875 10.75 C12.52557948 16.78417222 12.89209628 20.24958331 9.375 25.375 C7.93777942 27.26623191 6.47548801 29.13846938 5 31 C3.96849164 32.33473302 2.93867255 33.67077251 1.91015625 35.0078125 C-1.08762989 38.89312947 -4.1095619 42.75902114 -7.13720703 46.62109375 C-10.10129653 50.40642639 -13.0501087 54.20360007 -16 58 C-17.15357828 59.48312546 -18.30722443 60.96619814 -19.4609375 62.44921875 C-21.92542908 65.61775227 -24.38879226 68.78715964 -26.8515625 71.95703125 C-27.48320312 72.76978516 -28.11484375 73.58253906 -28.765625 74.41992188 C-29.9716418 75.97178172 -31.17738748 77.52385232 -32.3828125 79.07617188 C-32.929375 79.77935547 -33.4759375 80.48253906 -34.0390625 81.20703125 C-34.80138184 82.19630615 -34.80138184 82.19630615 -35.57910156 83.20556641 C-36.81768757 84.76976008 -38.13357323 86.27212107 -39.4609375 87.76171875 C-41.18143068 89.82149245 -41.18143068 89.82149245 -41.03125 91.99609375 C-39.58856109 94.79950062 -37.67610666 96.78228948 -35.5 99.0625 C-32.05597308 102.72816612 -28.76854079 106.44269532 -25.625 110.375 C-22.23614031 114.578144 -18.68760734 118.56203177 -15 122.5 C-10.50791049 127.29745264 -6.28027486 132.23226178 -2.16796875 137.36328125 C0.77180949 140.93868722 3.89745737 144.32738263 7.0546875 147.7109375 C11.0067364 152.36134042 12.57309583 155.67076854 12.3515625 161.72265625 C11.58532601 166.68616597 9.10821843 169.97287072 5.4375 173.375 C1.29007068 176.13995288 -3.11671632 176.89308376 -8 176 C-13.3596701 173.41257306 -16.96955311 170.37383536 -20.875 165.9375 C-21.65133789 165.07705078 -21.65133789 165.07705078 -22.44335938 164.19921875 C-26.33020585 159.85594407 -30.00905999 155.35827306 -33.65625 150.8125 C-36.81266074 147.02480712 -40.172111 143.44743814 -43.54541016 139.85351562 C-47.55827742 135.55153688 -51.25482312 131.08399222 -54.8671875 126.4375 C-57.36583983 123.58189733 -60.03587906 121.36454092 -63 119 C-68.51918668 125.44719152 -73.8188592 131.99633118 -78.875 138.8125 C-83.85310142 145.52232468 -88.98612047 152.08340999 -94.24609375 158.57421875 C-95.96623139 160.69853851 -97.63465764 162.83861599 -99.28515625 165.01953125 C-103.5471194 170.62824191 -106.94480453 174.97430817 -114.15625 176.4375 C-118.68208626 176.80948654 -121.62271751 176.00557591 -125.375 173.4375 C-130.13635481 169.38750298 -131.6228609 165.30054851 -132.625 159.1875 C-132.31408919 153.33571434 -128.50680631 149.42431743 -125 145 C-123.96849164 143.66526698 -122.93867255 142.32922749 -121.91015625 140.9921875 C-118.91686449 137.11264745 -115.89917155 133.2527445 -112.87597656 129.39648438 C-111.03464695 127.04426008 -109.19957912 124.68731681 -107.3671875 122.328125 C-106.77703857 121.56838379 -106.18688965 120.80864258 -105.57885742 120.02587891 C-104.40888199 118.51841366 -103.23976218 117.01028393 -102.0715332 115.50146484 C-99.30739902 111.93785922 -96.52290774 108.39621488 -93.67578125 104.8984375 C-93.15975342 104.25938477 -92.64372559 103.62033203 -92.11206055 102.96191406 C-91.14903107 101.77231731 -90.178284 100.58891021 -89.19848633 99.41308594 C-86.63097766 96.2291995 -86 95.26078809 -86 91 C-87.58889965 89.00125334 -89.15363622 87.24483181 -90.9375 85.4375 C-91.96078259 84.3643092 -92.98157933 83.28874318 -94 82.2109375 C-94.51046875 81.67178711 -95.0209375 81.13263672 -95.546875 80.57714844 C-97.62144038 78.32552001 -99.52882272 75.9553638 -101.4375 73.5625 C-104.80350292 69.37757687 -108.33216078 65.41727764 -112 61.5 C-132.52854569 39.53696078 -132.52854569 39.53696078 -132.4140625 29.1953125 C-131.43936456 24.02757437 -127.5351233 20.3276742 -123.6875 17 C-119.78118005 15.5464856 -116.09842389 15.17902234 -112 16 C-106.63669913 18.5836906 -103.03133344 21.62515757 -99.125 26.0625 C-98.60744141 26.63613281 -98.08988281 27.20976562 -97.55664062 27.80078125 C-93.67292313 32.14055952 -89.99744459 36.63500082 -86.3515625 41.17578125 C-83.62748288 44.44739182 -80.77482655 47.57202463 -77.875 50.6875 C-77.36420898 51.23639893 -76.85341797 51.78529785 -76.32714844 52.35083008 C-75.33966702 53.41110865 -74.35204203 54.47125352 -73.36425781 55.53125 C-71.47371862 57.56659069 -69.602512 59.61748659 -67.75 61.6875 C-67.20859375 62.28949219 -66.6671875 62.89148438 -66.109375 63.51171875 C-65 65 -65 65 -65 67 C-64.34 67 -63.68 67 -63 67 C-62.71946777 66.40936768 -62.43893555 65.81873535 -62.14990234 65.21020508 C-61.09492329 63.18245022 -59.97094086 61.46052274 -58.6015625 59.63671875 C-58.12831543 59.00483643 -57.65506836 58.3729541 -57.16748047 57.72192383 C-56.65846191 57.05056396 -56.14944336 56.3792041 -55.625 55.6875 C-54.82860107 54.63115356 -54.82860107 54.63115356 -54.01611328 53.5534668 C-49.88945968 48.10781648 -45.65239719 42.75720848 -41.36401367 37.43847656 C-38.17064862 33.47588391 -35.03053663 29.47882977 -31.9375 25.4375 C-31.13570313 24.39464844 -30.33390625 23.35179687 -29.5078125 22.27734375 C-28.20197287 20.57581086 -26.90234893 18.87029107 -25.61230469 17.15673828 C-24.18763762 15.26446576 -22.75076386 13.38194933 -21.3125 11.5 C-20.88509521 10.92435303 -20.45769043 10.34870605 -20.01733398 9.75561523 C-14.7375354 2.89560589 -9.00008336 -1.94512951 0 0 Z " fill="#F8F8F8" transform="translate(212,160)"/>
<path d="M0 0 C7.27806099 -0.09196567 14.55409573 -0.17156816 21.83227539 -0.21972656 C24.30662885 -0.23980771 26.78093505 -0.26707823 29.25512695 -0.30175781 C32.81733888 -0.35042778 36.37892181 -0.37300454 39.94140625 -0.390625 C41.04271378 -0.41127014 42.1440213 -0.43191528 43.27870178 -0.45318604 C49.77204449 -0.45507138 53.73004787 0.11187137 59 4 C63.1329674 8.4592543 64.32304156 11.82443087 64.2109375 17.9453125 C63.72508058 22.67791884 61.48257414 25.78040809 58 28.8125 C54.10204514 31.65475875 51.57855009 32.12488753 46.88598633 32.11352539 C45.84513382 32.11344986 44.80428131 32.11337433 43.73188782 32.11329651 C42.60993515 32.10813522 41.48798248 32.10297394 40.33203125 32.09765625 C38.60710701 32.09553383 38.60710701 32.09553383 36.84733582 32.09336853 C33.16903092 32.08776429 29.49078655 32.07521104 25.8125 32.0625 C23.32096442 32.05748555 20.82942789 32.05292255 18.33789062 32.04882812 C12.22521825 32.03864373 6.11267701 32.01906901 0 32 C0 21.44 0 10.88 0 0 Z " fill="#388E3C" transform="translate(288,336)"/>
<path d="M0 0 C7.27806099 -0.09196567 14.55409573 -0.17156816 21.83227539 -0.21972656 C24.30662885 -0.23980771 26.78093505 -0.26707823 29.25512695 -0.30175781 C32.81733888 -0.35042778 36.37892181 -0.37300454 39.94140625 -0.390625 C41.04271378 -0.41127014 42.1440213 -0.43191528 43.27870178 -0.45318604 C49.77204449 -0.45507138 53.73004787 0.11187137 59 4 C63.1329674 8.4592543 64.32304156 11.82443087 64.2109375 17.9453125 C63.72508058 22.67791884 61.48257414 25.78040809 58 28.8125 C54.10204514 31.65475875 51.57855009 32.12488753 46.88598633 32.11352539 C45.84513382 32.11344986 44.80428131 32.11337433 43.73188782 32.11329651 C42.60993515 32.10813522 41.48798248 32.10297394 40.33203125 32.09765625 C38.60710701 32.09553383 38.60710701 32.09553383 36.84733582 32.09336853 C33.16903092 32.08776429 29.49078655 32.07521104 25.8125 32.0625 C23.32096442 32.05748555 20.82942789 32.05292255 18.33789062 32.04882812 C12.22521825 32.03864373 6.11267701 32.01906901 0 32 C0 21.44 0 10.88 0 0 Z " fill="#388E3C" transform="translate(288,272)"/>
<path d="M0 0 C7.27806099 -0.09196567 14.55409573 -0.17156816 21.83227539 -0.21972656 C24.30662885 -0.23980771 26.78093505 -0.26707823 29.25512695 -0.30175781 C32.81733888 -0.35042778 36.37892181 -0.37300454 39.94140625 -0.390625 C41.04271378 -0.41127014 42.1440213 -0.43191528 43.27870178 -0.45318604 C49.77204449 -0.45507138 53.73004787 0.11187137 59 4 C63.1329674 8.4592543 64.32304156 11.82443087 64.2109375 17.9453125 C63.72508058 22.67791884 61.48257414 25.78040809 58 28.8125 C54.10204514 31.65475875 51.57855009 32.12488753 46.88598633 32.11352539 C45.84513382 32.11344986 44.80428131 32.11337433 43.73188782 32.11329651 C42.60993515 32.10813522 41.48798248 32.10297394 40.33203125 32.09765625 C38.60710701 32.09553383 38.60710701 32.09553383 36.84733582 32.09336853 C33.16903092 32.08776429 29.49078655 32.07521104 25.8125 32.0625 C23.32096442 32.05748555 20.82942789 32.05292255 18.33789062 32.04882812 C12.22521825 32.03864373 6.11267701 32.01906901 0 32 C0 21.44 0 10.88 0 0 Z " fill="#388E3C" transform="translate(288,208)"/>
<path d="M0 0 C7.27806099 -0.09196567 14.55409573 -0.17156816 21.83227539 -0.21972656 C24.30662885 -0.23980771 26.78093505 -0.26707823 29.25512695 -0.30175781 C32.81733888 -0.35042778 36.37892181 -0.37300454 39.94140625 -0.390625 C41.04271378 -0.41127014 42.1440213 -0.43191528 43.27870178 -0.45318604 C49.77204449 -0.45507138 53.73004787 0.11187137 59 4 C63.1329674 8.4592543 64.32304156 11.82443087 64.2109375 17.9453125 C63.72508058 22.67791884 61.48257414 25.78040809 58 28.8125 C54.10204514 31.65475875 51.57855009 32.12488753 46.88598633 32.11352539 C45.84513382 32.11344986 44.80428131 32.11337433 43.73188782 32.11329651 C42.60993515 32.10813522 41.48798248 32.10297394 40.33203125 32.09765625 C38.60710701 32.09553383 38.60710701 32.09553383 36.84733582 32.09336853 C33.16903092 32.08776429 29.49078655 32.07521104 25.8125 32.0625 C23.32096442 32.05748555 20.82942789 32.05292255 18.33789062 32.04882812 C12.22521825 32.03864373 6.11267701 32.01906901 0 32 C0 21.44 0 10.88 0 0 Z " fill="#388E3C" transform="translate(288,144)"/>
<path d="M0 0 C0.86699524 -0.00807175 1.73399048 -0.01614349 2.6272583 -0.02445984 C4.46307381 -0.03828816 6.2989149 -0.04901592 8.13476562 -0.05688477 C10.92888763 -0.07406968 13.72181744 -0.11796287 16.515625 -0.16210938 C18.30207466 -0.17223939 20.08853435 -0.18075453 21.875 -0.1875 C23.11911652 -0.21376213 23.11911652 -0.21376213 24.3883667 -0.24055481 C30.15528028 -0.21921519 33.45349172 0.93252741 38.203125 4.23828125 C42.3360924 8.69753555 43.52616656 12.06271212 43.4140625 18.18359375 C42.92820558 22.91620009 40.68569914 26.01868934 37.203125 29.05078125 C32.35746294 32.5840765 28.15257903 32.41217797 22.37109375 32.44140625 C21.06704338 32.44995636 21.06704338 32.44995636 19.73664856 32.4586792 C17.89662898 32.46812403 16.05659252 32.47466113 14.21655273 32.47851562 C11.41164356 32.48820862 8.60747121 32.51923135 5.80273438 32.55078125 C4.01302517 32.55731293 2.22331074 32.56256275 0.43359375 32.56640625 C-0.81826469 32.58492645 -0.81826469 32.58492645 -2.09541321 32.6038208 C-7.76934169 32.58228526 -12.08658562 31.71037418 -16.44140625 27.73828125 C-20.39960866 22.65483735 -21.45373725 18.63660616 -20.796875 12.23828125 C-18.93830673 6.97233781 -16.19373304 4.44432357 -11.796875 1.23828125 C-7.86960411 -0.07080905 -4.09646117 0.03613134 0 0 Z " fill="#398E3D" transform="translate(404.796875,335.76171875)"/>
<path d="M0 0 C0.86699524 -0.00807175 1.73399048 -0.01614349 2.6272583 -0.02445984 C4.46307381 -0.03828816 6.2989149 -0.04901592 8.13476562 -0.05688477 C10.92888763 -0.07406968 13.72181744 -0.11796287 16.515625 -0.16210938 C18.30207466 -0.17223939 20.08853435 -0.18075453 21.875 -0.1875 C23.11911652 -0.21376213 23.11911652 -0.21376213 24.3883667 -0.24055481 C30.15528028 -0.21921519 33.45349172 0.93252741 38.203125 4.23828125 C42.3360924 8.69753555 43.52616656 12.06271212 43.4140625 18.18359375 C42.92820558 22.91620009 40.68569914 26.01868934 37.203125 29.05078125 C32.35746294 32.5840765 28.15257903 32.41217797 22.37109375 32.44140625 C21.06704338 32.44995636 21.06704338 32.44995636 19.73664856 32.4586792 C17.89662898 32.46812403 16.05659252 32.47466113 14.21655273 32.47851562 C11.41164356 32.48820862 8.60747121 32.51923135 5.80273438 32.55078125 C4.01302517 32.55731293 2.22331074 32.56256275 0.43359375 32.56640625 C-0.81826469 32.58492645 -0.81826469 32.58492645 -2.09541321 32.6038208 C-7.76934169 32.58228526 -12.08658562 31.71037418 -16.44140625 27.73828125 C-20.39960866 22.65483735 -21.45373725 18.63660616 -20.796875 12.23828125 C-18.93830673 6.97233781 -16.19373304 4.44432357 -11.796875 1.23828125 C-7.86960411 -0.07080905 -4.09646117 0.03613134 0 0 Z " fill="#398E3D" transform="translate(404.796875,271.76171875)"/>
<path d="M0 0 C0.86699524 -0.00807175 1.73399048 -0.01614349 2.6272583 -0.02445984 C4.46307381 -0.03828816 6.2989149 -0.04901592 8.13476562 -0.05688477 C10.92888763 -0.07406968 13.72181744 -0.11796287 16.515625 -0.16210938 C18.30207466 -0.17223939 20.08853435 -0.18075453 21.875 -0.1875 C23.11911652 -0.21376213 23.11911652 -0.21376213 24.3883667 -0.24055481 C30.15528028 -0.21921519 33.45349172 0.93252741 38.203125 4.23828125 C42.3360924 8.69753555 43.52616656 12.06271212 43.4140625 18.18359375 C42.92820558 22.91620009 40.68569914 26.01868934 37.203125 29.05078125 C32.35746294 32.5840765 28.15257903 32.41217797 22.37109375 32.44140625 C21.06704338 32.44995636 21.06704338 32.44995636 19.73664856 32.4586792 C17.89662898 32.46812403 16.05659252 32.47466113 14.21655273 32.47851562 C11.41164356 32.48820862 8.60747121 32.51923135 5.80273438 32.55078125 C4.01302517 32.55731293 2.22331074 32.56256275 0.43359375 32.56640625 C-0.81826469 32.58492645 -0.81826469 32.58492645 -2.09541321 32.6038208 C-7.76934169 32.58228526 -12.08658562 31.71037418 -16.44140625 27.73828125 C-20.39960866 22.65483735 -21.45373725 18.63660616 -20.796875 12.23828125 C-18.93830673 6.97233781 -16.19373304 4.44432357 -11.796875 1.23828125 C-7.86960411 -0.07080905 -4.09646117 0.03613134 0 0 Z " fill="#398E3D" transform="translate(404.796875,207.76171875)"/>
<path d="M0 0 C0.86699524 -0.00807175 1.73399048 -0.01614349 2.6272583 -0.02445984 C4.46307381 -0.03828816 6.2989149 -0.04901592 8.13476562 -0.05688477 C10.92888763 -0.07406968 13.72181744 -0.11796287 16.515625 -0.16210938 C18.30207466 -0.17223939 20.08853435 -0.18075453 21.875 -0.1875 C23.11911652 -0.21376213 23.11911652 -0.21376213 24.3883667 -0.24055481 C30.15528028 -0.21921519 33.45349172 0.93252741 38.203125 4.23828125 C42.3360924 8.69753555 43.52616656 12.06271212 43.4140625 18.18359375 C42.92820558 22.91620009 40.68569914 26.01868934 37.203125 29.05078125 C32.35746294 32.5840765 28.15257903 32.41217797 22.37109375 32.44140625 C21.06704338 32.44995636 21.06704338 32.44995636 19.73664856 32.4586792 C17.89662898 32.46812403 16.05659252 32.47466113 14.21655273 32.47851562 C11.41164356 32.48820862 8.60747121 32.51923135 5.80273438 32.55078125 C4.01302517 32.55731293 2.22331074 32.56256275 0.43359375 32.56640625 C-0.81826469 32.58492645 -0.81826469 32.58492645 -2.09541321 32.6038208 C-7.76934169 32.58228526 -12.08658562 31.71037418 -16.44140625 27.73828125 C-20.39960866 22.65483735 -21.45373725 18.63660616 -20.796875 12.23828125 C-18.93830673 6.97233781 -16.19373304 4.44432357 -11.796875 1.23828125 C-7.86960411 -0.07080905 -4.09646117 0.03613134 0 0 Z " fill="#398E3D" transform="translate(404.796875,143.76171875)"/>
</svg>
