<svg width="22" height="22" viewBox="0 0 22 22" fill="none" xmlns="http://www.w3.org/2000/svg">
<path d="M11.9166 4.58333C11.9166 5.59586 9.65935 6.41667 6.87492 6.41667C4.09048 6.41667 1.83325 5.59586 1.83325 4.58333M11.9166 4.58333C11.9166 3.57081 9.65935 2.75 6.87492 2.75C4.09048 2.75 1.83325 3.57081 1.83325 4.58333M11.9166 4.58333V8.66905C10.7969 9.00532 10.0833 9.51402 10.0833 10.0833M1.83325 4.58333V15.5833C1.83325 16.5959 4.09048 17.4167 6.87492 17.4167C8.09375 17.4167 9.21156 17.2594 10.0833 16.9976V10.0833M1.83325 8.25C1.83325 9.26252 4.09048 10.0833 6.87492 10.0833C8.09374 10.0833 9.21156 9.92606 10.0833 9.66428M1.83325 11.9167C1.83325 12.9292 4.09048 13.75 6.87492 13.75C8.09374 13.75 9.21156 13.5927 10.0833 13.3309M20.1666 10.0833C20.1666 11.0959 17.9094 11.9167 15.1249 11.9167C12.3405 11.9167 10.0833 11.0959 10.0833 10.0833M20.1666 10.0833C20.1666 9.07081 17.9094 8.25 15.1249 8.25C12.3405 8.25 10.0833 9.07081 10.0833 10.0833M20.1666 10.0833V17.4167C20.1666 18.4292 17.9094 19.25 15.1249 19.25C12.3405 19.25 10.0833 18.4292 10.0833 17.4167V10.0833M20.1666 13.75C20.1666 14.7625 17.9094 15.5833 15.1249 15.5833C12.3405 15.5833 10.0833 14.7625 10.0833 13.75" stroke="#1C1C1E" stroke-width="1.5" stroke-linecap="round" stroke-linejoin="round"/>
</svg>
