<svg width="94" height="48" viewBox="0 0 94 48" fill="none" xmlns="http://www.w3.org/2000/svg">
<path d="M2.42643 47.0426C3.04726 47.1038 3.69394 46.9476 4.21969 46.5596L34.6104 24.1247L46.0544 37.1733C46.8991 38.1364 48.4347 38.2879 49.4858 37.5118L87.9498 9.11687L87.0013 17.0991C86.8551 18.3295 87.8222 19.4321 89.1635 19.5644C90.5049 19.6967 91.7086 18.8081 91.8547 17.5777L93.4417 4.22192C93.5879 2.99152 92.6208 1.88883 91.2795 1.75654L76.7197 0.320561C75.3784 0.188271 74.1747 1.07686 74.0285 2.30726C73.8823 3.53767 74.8494 4.64035 76.1907 4.77264L84.8924 5.63086L48.3312 32.6211L36.8871 19.5724C36.0425 18.6093 34.5069 18.4579 33.4558 19.234L1.16236 43.0736C0.111054 43.8497 -0.0563175 45.2583 0.788361 46.2212C1.21059 46.7027 1.80559 46.9813 2.42643 47.0426Z" fill="#11A0DB"/>
</svg>
