<?xml version="1.0" encoding="UTF-8"?>
<svg xmlns="http://www.w3.org/2000/svg" version="1.1" xmlns:xlink="http://www.w3.org/1999/xlink" viewBox="0 0 155.6 46.4">
  <defs>
    <style>
      .cls-1 {
        fill: none;
      }

      .cls-2 {
        isolation: isolate;
      }

      .cls-3 {
        fill: #149eda;
      }

      .cls-4 {
        fill: #424546;
      }

      .cls-5 {
        clip-path: url(#clippath);
      }
    </style>
    <clipPath id="clippath">
      <rect class="cls-1" x="1" y="23.2" width="153.6" height="21.3"/>
    </clipPath>
  </defs>
  <!-- Generator: Adobe Illustrator 28.7.0, SVG Export Plug-In . SVG Version: 1.2.0 Build 136)  -->
  <g>
    <g id="Layer_1">
      <g id="Group_163">
        <g id="Powered_by" class="cls-2">
          <g class="cls-2">
            <path d="M53.1,1.9h2.2c.4,0,.7,0,1,.2.3.1.5.3.7.4s.3.4.4.6.1.4.1.6c0,.5,0,.8-.2,1.2-.2.3-.4.6-.6.8-.3.2-.6.4-.9.5-.4,0-.7.1-1.1.1h-1.2l-.6,2.9h-1l1.4-7.3ZM54.6,5.5c.5,0,.9-.1,1.2-.4.3-.3.5-.7.5-1.2s-.1-.6-.3-.8-.5-.3-.9-.3h-1.2l-.5,2.7h1.2Z"/>
            <path d="M60.5,4c.3,0,.6,0,.9.2.3.1.5.3.7.4s.3.4.5.7c.1.3.2.6.2.9s0,.9-.2,1.3c-.2.4-.4.7-.6,1-.3.3-.6.5-.9.7-.4.2-.8.2-1.2.2s-.6,0-.9-.2c-.3-.1-.5-.3-.7-.5s-.3-.4-.5-.7c-.1-.3-.2-.6-.2-.9s0-.8.2-1.2c.2-.4.4-.7.6-1,.3-.3.6-.5.9-.7.4-.2.7-.3,1.2-.3ZM60.4,4.8c-.2,0-.5,0-.7.2-.2.1-.4.3-.6.5-.2.2-.3.4-.4.7-.1.3-.2.6-.2.9,0,.4.1.8.3,1.1s.5.4,1,.4.5,0,.7-.2c.2-.1.4-.3.6-.5s.3-.4.4-.7c.1-.3.2-.6.2-.9,0-.5-.1-.9-.3-1.1s-.6-.4-1-.4Z"/>
            <path d="M63.7,4.1h1l.3,3.9,1.9-3.9h.8l.4,3.9,1.8-3.9h1.1l-2.6,5.1h-.9l-.4-3.6-1.8,3.6h-.9l-.7-5.1Z"/>
            <path d="M73.9,4c.4,0,.7,0,.9.2s.5.3.6.5.3.4.4.7c0,.3.1.5.1.8s0,.6,0,.9h-3.8s0,0,0,0h0c0,.5.1.8.3,1.1.2.3.6.4,1,.4s.6,0,.8-.2.5-.3.7-.5l.5.6c-.2.3-.5.5-.9.6-.4.2-.8.3-1.2.3s-.7,0-1-.2c-.3-.1-.5-.3-.7-.5-.2-.2-.3-.4-.4-.7,0-.3-.1-.5-.1-.9,0-.4,0-.9.2-1.3.1-.4.3-.7.6-1,.3-.3.6-.5.9-.7.3-.2.7-.3,1.1-.3ZM75,6.3s0,0,0,0c0,0,0,0,0,0,0-.4,0-.7-.3-.9-.2-.3-.5-.4-.9-.4s-.8.1-1.1.4c-.3.3-.5.6-.6,1.1h2.9Z"/>
            <path d="M77.3,5.2c0-.2,0-.4.1-.6,0-.2,0-.3,0-.5h.9v.8c0,0,0-.2.1-.3s.2-.2.4-.3c.1,0,.3-.2.5-.2.2,0,.4,0,.6,0s.2,0,.3,0c0,0,.2,0,.3,0l-.4.9c-.1,0-.2,0-.3,0,0,0-.2,0-.3,0-.2,0-.4,0-.6.1-.2,0-.4.2-.5.4s-.3.3-.4.5c0,.2-.2.4-.2.6l-.5,2.6h-.9l.8-4.1Z"/>
            <path d="M83.4,4c.4,0,.7,0,.9.2s.5.3.6.5.3.4.4.7c0,.3.1.5.1.8s0,.6,0,.9h-3.8s0,0,0,0h0c0,.5.1.8.3,1.1.2.3.6.4,1,.4s.6,0,.8-.2.5-.3.7-.5l.5.6c-.2.3-.5.5-.9.6-.4.2-.8.3-1.2.3s-.7,0-1-.2c-.3-.1-.5-.3-.7-.5-.2-.2-.3-.4-.4-.7,0-.3-.1-.5-.1-.9,0-.4,0-.9.2-1.3.1-.4.3-.7.6-1,.3-.3.6-.5.9-.7.3-.2.7-.3,1.1-.3ZM84.4,6.3s0,0,0,0c0,0,0,0,0,0,0-.4,0-.7-.3-.9-.2-.3-.5-.4-.9-.4s-.8.1-1.1.4c-.3.3-.5.6-.6,1.1h2.9Z"/>
            <path d="M89.7,8.6c0,0-.1.1-.2.2s-.2.2-.4.3-.3.2-.5.2c-.2,0-.4,0-.6,0s-.5,0-.7-.1c-.2,0-.4-.2-.6-.4s-.3-.4-.4-.6c0-.2-.1-.5-.1-.8,0-.6.1-1.1.3-1.6.2-.4.5-.8.7-1.1.3-.3.6-.5,1-.6.3-.1.7-.2,1-.2s.6,0,.8,0c.2,0,.4.1.6.3l.5-2.4h1l-1.2,6.2c0,.2,0,.4-.1.6s0,.3,0,.5h-.9v-.6ZM90.3,5.2c-.2-.1-.4-.2-.5-.3s-.4,0-.6,0-.5,0-.7.2c-.2.1-.4.3-.6.5-.2.2-.3.5-.5.8-.1.3-.2.6-.2,1s0,.7.3.9c.2.2.5.3.8.3s.5,0,.7-.2.4-.2.5-.4c.1-.2.3-.3.3-.5,0-.2.1-.3.2-.5l.4-1.9Z"/>
            <path d="M95.1,1.9h.9l-.5,2.8c0,0,.2-.2.3-.2s.2-.2.4-.2c.1,0,.3-.1.5-.2s.4,0,.6,0,.5,0,.8.2c.2.1.4.3.6.4.1.2.3.4.3.6s.1.5.1.8c0,.5,0,1-.2,1.4s-.4.8-.7,1.1c-.3.3-.6.5-1,.7s-.9.2-1.3.2-.8,0-1.1-.1c-.3,0-.6-.2-.8-.3l1.4-7.1ZM94.8,8.4c.2,0,.4.1.5.1.1,0,.3,0,.5,0,.3,0,.6,0,.9-.2.3-.1.5-.3.7-.5.2-.2.3-.5.4-.8,0-.3.1-.6.1-.9s0-.4,0-.5c0-.2,0-.3-.2-.4s-.2-.2-.3-.3c-.1,0-.3-.1-.5-.1s-.5,0-.7.1c-.2,0-.4.2-.5.3-.1.1-.3.3-.4.5s-.2.4-.2.6l-.4,2.1Z"/>
            <path d="M98.9,10.6c0,0,.2.1.3.2s.2,0,.4,0,.2,0,.3,0,.2-.1.3-.2c0-.1.2-.2.3-.4,0-.2.2-.4.3-.6l.2-.3-1.2-5h1.1l.8,3.9,2.1-3.9h1.1l-3.3,5.7c-.2.3-.3.5-.5.7-.1.2-.3.4-.4.6-.1.2-.3.3-.5.4-.2,0-.3.1-.5.1s-.4,0-.5,0-.3-.1-.5-.3l.4-.7Z"/>
          </g>
        </g>
        <g id="Group_124">
          <g class="cls-5">
            <g id="Group_123">
              <g id="Path_52">
                <path class="cls-3" d="M18.6,25.8c4.4,3.9,4.9,10.6,1,15-3.9,4.4-10.6,4.9-15,1S-.2,31.3,3.6,26.9h0c.3-.4.7-.7,1-1,1.2,1.6,2.3,3.2,3.5,4.8l3.5,4.8c2.3-3.2,4.6-6.4,7-9.6"/>
              </g>
              <g id="Path_53">
                <path class="cls-3" d="M11.6,32.2c-.6-.8-1.2-1.6-1.8-2.4l-3.5-4.8h0c-.1-.3-.1-.3,0-.4,1-.6,2.1-1,3.3-1.2,2.4-.5,4.9,0,7.1,1.1h.2c0,.2,0,.2,0,.2-1.8,2.5-3.6,5-5.4,7.5"/>
              </g>
              <g id="Path_54">
                <path class="cls-4" d="M109.5,40.1l-8-8.3c0,.2,0,.3,0,.4v6.9c0,.4,0,.3-.3.3h-1.1c-.2,0-.2,0-.2-.2v-11.5s0,0,0,0h0s0,0,0,0l7.8,8.2h0c0-.1,0-.2,0-.4v-6.8c0-.5,0-.4.4-.4h1c.2,0,.3,0,.2.2v11.1c0,.1,0,.2,0,.3"/>
              </g>
              <g id="Path_55">
                <path class="cls-4" d="M137.5,31.6l-.4-.5c-.6-.7-1.4-1.2-2.3-1.4-2.2-.4-4.3,1-4.8,3.3,0,.1,0,.2,0,.4,0,.6,0,1.2.2,1.8.6,1.7,2.1,2.9,3.9,2.9,1.5,0,2.7-1,3.1-2.5,0-.1,0-.3,0-.4h-2.5c-.1,0-.2,0-.2-.2v-1.2c0,0,0-.2.2-.2h4.1c.4,0,.3,0,.3.3,0,.6,0,1.1-.2,1.7-.4,2-2.1,3.6-4.2,3.9-2.8.4-5.5-1.3-6.3-4.1-.9-3,.9-6.2,3.9-7.1.1,0,.2,0,.3,0,1.9-.5,4,0,5.4,1.5.2.2.5.3.5.5s-.3.3-.5.5-.4.4-.6.7"/>
              </g>
              <g id="Path_56">
                <path class="cls-4" d="M93.1,27.7l5.3,11.8h-1.7c-.2,0-.2-.1-.2-.2-.3-.7-.6-1.3-.9-2s0-.5-.8-.5h-3.8c-.2,0-.5.1-.5.4-.3.7-.6,1.4-.9,2.1,0,.2-.2.3-.4.3-.5,0-1,0-1.5,0,1.8-3.9,3.6-7.8,5.5-11.8M93.1,31.4c-.6,1.3-1.1,2.5-1.7,3.7h3.3l-1.6-3.7Z"/>
              </g>
              <g id="Path_57">
                <path class="cls-4" d="M117.3,39.4l5.5-11.8,5.3,11.8h-1.7c-.2,0-.2,0-.2-.2-.2-.6-.5-1.2-.7-1.7,0-.2-.2-.3-.2-.5,0-.2-.2-.3-.4-.3-.5,0-1.1,0-1.6,0h-2.5c-.2,0-.4,0-.5.3-.3.7-.7,1.4-1,2.2,0,.2-.2.3-.4.2h-1.5ZM121,35.2c1.1,0,2.2,0,3.3,0-.5-1.2-1.1-2.4-1.6-3.7l-1.7,3.7Z"/>
              </g>
              <g id="Path_58">
                <path class="cls-4" d="M36.1,27.7c1.8,4,3.5,7.8,5.3,11.8h-1.7c-.2,0-.2,0-.2-.2-.3-.7-.6-1.4-.9-2.1,0-.2-.3-.4-.5-.4-1.3,0-2.7,0-4,0-.2,0-.4.1-.5.3-.3.7-.7,1.4-1,2.1,0,.2-.2.3-.4.3-.5,0-1,0-1.5,0,1.8-3.9,3.6-7.8,5.5-11.8M36.1,31.4l-1.7,3.7h3.3c-.5-1.2-1.1-2.4-1.6-3.7"/>
              </g>
              <g id="Path_59">
                <path class="cls-4" d="M59.7,33.9v-5.3q0-.3.3-.3h5.5q.3,0,.3.3v1q0,.3-.3.3h-3.7c-.5,0-.4,0-.4.4v2c0,.2,0,.3.3.3h3.9c0,0,.2,0,.2.1,0,0,0,0,0,0v1.2c0,.1,0,.2-.2.2h-3.9c-.3,0-.3,0-.3.2v3.2q0,.2.3.2h4c.1,0,.2,0,.2.1v1.3c0,0,0,.2-.2.2h-5.8c0,0-.1,0-.1,0v-5.4Z"/>
              </g>
              <g id="Path_60">
                <path class="cls-4" d="M141.2,33.9v-5.3c0-.1,0-.2.2-.2h5.6c.4,0,.3,0,.3.3v1c0,.2,0,.2-.2.2h-4q-.2,0-.2.3v2.1q0,.2.3.2h3.7c.4,0,.3,0,.3.3v1q0,.3-.3.3h-3.6c-.5,0-.4,0-.4.4v2.9q0,.3.3.3h4c0,0,.2,0,.2.2v1.3c0,.1,0,.1-.2.1h-5.8c-.1,0-.2,0-.2-.2v-5.4h0Z"/>
              </g>
              <g id="Path_61">
                <path class="cls-4" d="M48.8,30l-1.2.7c0,0-.2,0-.2,0,0-.1-.2-.3-.3-.4-.7-.7-1.8-.8-2.5,0,0,0,0,0,0,0-.4.5-.4,1.2,0,1.6.2.2.5.4.8.5.4.2.8.3,1.2.5.4.2.8.4,1.2.6.8.5,1.3,1.4,1.3,2.4.1,1.7-1,3.2-2.6,3.6-.7.2-1.4.2-2.1,0-.7-.2-1.3-.7-1.7-1.3-.3-.5-.5-1-.6-1.6,0-.2,0-.2.2-.3.4,0,.9-.2,1.3-.3.1,0,.2,0,.2.1,0,.2,0,.4.1.6.2.9,1.1,1.5,2,1.3,1-.1,1.7-1,1.6-2,0,0,0,0,0,0,0-.5-.4-1-.8-1.2-.3-.2-.6-.3-.9-.5-.4-.2-.8-.3-1.1-.5-.5-.2-.9-.5-1.3-.9-1-1-1.1-2.7-.1-3.7.7-.8,1.8-1.2,2.9-1.1,1.2,0,2.2.7,2.8,1.8"/>
              </g>
              <g id="Path_62">
                <path class="cls-4" d="M54.1,39.6c-1.8,0-3.4-1.3-3.5-3.1,0-.1,0-.2.1-.2l1.4-.3c.1,0,.2,0,.2.1,0,.2,0,.4.1.7.2.8,1.1,1.4,1.9,1.2.9,0,1.5-.8,1.6-1.6,0-.7-.2-1.3-.8-1.7-.3-.2-.6-.3-.9-.5-.4-.2-.8-.3-1.2-.5-.4-.2-.8-.4-1.2-.8-1.1-1-1.1-2.7-.1-3.8,0,0,0,0,0,0,0,0,0,0,0,0,.7-.7,1.7-1.1,2.8-1,1.1,0,2.1.7,2.7,1.7,0,.1,0,.2,0,.3-.3.2-.7.4-1,.6-.1,0-.2,0-.3,0,0,0,0-.1,0-.2-.6-.8-1.7-1-2.5-.5-.1,0-.2.2-.3.2-.4.5-.4,1.2,0,1.6,0,0,0,0,0,0h0c.2.2.5.4.8.5.4.2.8.3,1.2.5.4.2.8.4,1.2.6,1,.7,1.5,1.8,1.3,3-.2,1.8-1.7,3.2-3.6,3.2"/>
              </g>
              <g id="Path_63">
                <path class="cls-4" d="M83.8,36l.4-1.1c.8-2.1,1.7-4.1,2.5-6.2.1-.3,0-.3.5-.3h1.5c-1.7,4-3.3,7.9-5,11.9-1.6-4-3.2-7.9-4.8-11.8,0,0,.2,0,.2,0h1.3q.3,0,.4.3l2.3,5.9c.2.4.3.7.4,1.1,0,.1,0,.2.2.3"/>
              </g>
              <g id="Path_64">
                <path class="cls-4" d="M115.2,34.7v4.4q0,.3-.3.3h-1.2c-.2,0-.2,0-.2-.2s0-.3,0-.5v-8.5c0-.3,0-.3-.3-.3h-1.9q-.3,0-.3-.3v-1c0-.2,0-.3.3-.3h6.2c.3,0,.3,0,.3.3v1c0,.2,0,.2-.2.2h-2c-.3,0-.3,0-.3.3v4.4Z"/>
              </g>
              <g id="Path_65">
                <path class="cls-4" d="M71.3,34.7v4.4c0,.3,0,.3-.3.3h-1.2c-.2,0-.2,0-.2-.2v-8.9c0-.4,0-.4-.4-.4h-1.8c-.4,0-.4,0-.4-.4v-.8q0-.3.3-.3h6.2c.1,0,.2,0,.2.2v1.2c0,.2-.1.2-.2.2h-2q-.3,0-.3.3v4.5Z"/>
              </g>
              <g id="Path_66">
                <path class="cls-4" d="M154.6,27.5c0,1.5-1.1,2.7-2.6,2.8-1.5,0-2.7-1.1-2.8-2.6,0-1.5,1.1-2.7,2.6-2.8,0,0,0,0,0,0,1.5,0,2.7,1.2,2.7,2.6,0,0,0,0,0,0M149.9,27.5c0,1.1.9,2.1,2,2.1,0,0,0,0,0,0,1.1,0,2-.9,2-2,0,0,0,0,0,0,0-1.1-.8-2.1-1.9-2.1s-2.1.8-2.1,1.9c0,0,0,.1,0,.2M151.5,28.9h-.6v-2.6c.3,0,.7,0,1,0,.3,0,.6,0,.9.2.2.1.3.3.3.6,0,.3-.2.6-.5.6h0c.3.1.4.3.5.7,0,.2,0,.4.2.6h-.6c-.1-.2-.2-.4-.2-.6,0-.3-.2-.4-.5-.4h-.3v1ZM151.5,27.4h.3c.3,0,.6-.1.6-.4s-.2-.4-.6-.4c-.1,0-.2,0-.3,0v.8Z"/>
              </g>
            </g>
          </g>
        </g>
      </g>
    </g>
  </g>
</svg>