<?xml version="1.0" encoding="UTF-8"?>
<svg id="Layer_1" data-name="Layer 1" xmlns="http://www.w3.org/2000/svg" viewBox="0 0 58.29 13.04">
  <defs>
    <style>
      .cls-1 {
        fill: #1c1c1e;
      }
    </style>
  </defs>
  <g id="Layer_1-2" data-name="Layer 1">
    <g id="Group_163" data-name="Group 163">
      <g>
        <path class="cls-1" d="M3.13,9.32l1.16-7.03h2.42c.53,0,.96.1,1.28.29s.55.46.67.79c.12.33.15.71.08,1.13-.07.42-.22.8-.45,1.14-.23.33-.54.6-.93.79-.39.19-.85.29-1.38.29h-1.78l.13-.78h1.74c.37,0,.68-.06.93-.19.25-.13.44-.3.58-.52.14-.22.24-.47.28-.74.04-.28.03-.52-.04-.74s-.21-.38-.42-.51c-.21-.12-.5-.19-.86-.19h-1.5l-1.03,6.25h-.89Z"/>
        <path class="cls-1" d="M11.2,9.44c-.42,0-.78-.09-1.09-.27-.3-.18-.54-.43-.7-.75-.16-.32-.25-.69-.25-1.12s.07-.82.2-1.2.32-.74.56-1.05.54-.55.89-.74c.35-.18.74-.27,1.17-.27s.78.09,1.09.26c.3.18.54.42.7.75.16.32.25.7.25,1.13s-.07.83-.2,1.21c-.13.39-.32.74-.57,1.04-.25.31-.54.55-.89.73-.35.18-.74.27-1.17.27ZM11.22,8.69c.32,0,.6-.07.85-.22.25-.15.45-.35.62-.59.17-.24.29-.51.37-.81.08-.29.12-.58.12-.87,0-.27-.04-.51-.13-.72-.08-.21-.22-.38-.4-.5s-.41-.18-.69-.18c-.32,0-.6.07-.84.22-.24.15-.45.34-.61.59-.17.25-.29.52-.38.81s-.13.59-.13.88c0,.4.1.73.29.99s.5.4.92.4Z"/>
        <path class="cls-1" d="M15.71,9.32l-.73-5.21h.88l.26,2.27c.04.32.07.67.11,1.06s.06.81.08,1.28h-.14c.17-.45.33-.87.49-1.26.16-.39.31-.75.46-1.09l1.01-2.27h.88l.25,2.27c.03.32.07.67.1,1.06s.06.81.08,1.28h-.15c.17-.45.33-.87.5-1.26.16-.38.32-.75.47-1.09l1.02-2.27h.9l-2.45,5.21h-.84l-.28-2.36c-.03-.22-.05-.46-.08-.7-.02-.25-.05-.5-.07-.76-.02-.26-.04-.53-.06-.8h.19c-.11.27-.22.53-.33.79s-.22.52-.32.76c-.11.25-.21.49-.31.72l-1.07,2.35h-.83Z"/>
        <path class="cls-1" d="M24.32,9.44c-.42,0-.79-.08-1.09-.25-.3-.17-.54-.41-.71-.72-.17-.32-.25-.7-.25-1.16s.07-.89.22-1.29.35-.75.61-1.05c.26-.3.56-.54.91-.7.35-.17.72-.25,1.11-.25.34,0,.64.06.89.17s.45.28.59.49.21.47.21.76-.08.55-.23.76c-.15.21-.39.38-.71.51-.32.13-.73.23-1.23.29s-1.09.09-1.77.09l.11-.65c.58,0,1.06-.02,1.44-.05.38-.03.69-.09.92-.17.23-.08.39-.18.49-.31.1-.13.15-.29.15-.48,0-.2-.08-.37-.25-.49s-.39-.18-.67-.18c-.35,0-.65.08-.9.25-.25.16-.45.38-.61.63s-.27.54-.34.83-.11.58-.11.85c0,.25.04.49.12.69s.22.37.41.5c.19.12.45.19.77.19.34,0,.64-.07.91-.22.26-.15.46-.35.59-.61l.79.17c-.19.43-.49.77-.91,1.02-.42.25-.89.38-1.43.38Z"/>
        <path class="cls-1" d="M27.59,9.32l.86-5.21h.81l-.13.8h.05c.14-.26.34-.48.61-.64.27-.16.56-.24.87-.24.07,0,.14,0,.22,0,.08,0,.14,0,.19,0l-.14.84s-.1-.02-.19-.03c-.09-.01-.2-.02-.3-.02-.24,0-.46.05-.66.15-.21.1-.38.24-.52.42-.14.18-.23.4-.27.65l-.54,3.25h-.84Z"/>
        <path class="cls-1" d="M33.15,9.44c-.42,0-.79-.08-1.09-.25s-.54-.41-.71-.72c-.17-.32-.25-.7-.25-1.16s.07-.89.22-1.29.35-.75.61-1.05.56-.54.91-.7c.35-.17.72-.25,1.11-.25.34,0,.64.06.89.17.25.11.45.28.59.49.14.21.21.47.21.76s-.08.55-.23.76c-.15.21-.39.38-.71.51-.32.13-.73.23-1.23.29s-1.09.09-1.77.09l.11-.65c.58,0,1.06-.02,1.44-.05.39-.03.69-.09.92-.17.23-.08.39-.18.49-.31.1-.13.15-.29.15-.48,0-.2-.08-.37-.25-.49-.17-.12-.39-.18-.67-.18-.35,0-.65.08-.9.25-.25.16-.45.38-.61.63s-.27.54-.34.83-.11.58-.11.85c0,.25.04.49.12.69.08.21.21.37.41.5.19.12.45.19.77.19.34,0,.64-.07.91-.22.26-.15.46-.35.59-.61l.79.17c-.19.43-.49.77-.91,1.02-.42.25-.89.38-1.43.38Z"/>
        <path class="cls-1" d="M38.41,9.43c-.57,0-1.03-.19-1.36-.57-.33-.38-.5-.89-.5-1.53,0-.41.06-.81.18-1.2.12-.39.29-.74.52-1.06.23-.32.51-.57.84-.75s.7-.28,1.12-.28c.32,0,.58.05.77.16.19.1.34.23.44.37.1.14.18.27.23.39h.05l.44-2.66h.84l-1.16,7.03h-.82l.14-.8h-.07c-.09.13-.21.26-.35.4-.14.14-.32.26-.53.36-.21.1-.47.15-.77.15ZM38.56,8.68c.31,0,.59-.07.83-.22s.44-.35.6-.6c.16-.25.29-.53.37-.83.08-.3.12-.6.12-.89,0-.42-.1-.74-.29-.99-.2-.24-.49-.36-.88-.36-.31,0-.59.07-.82.22-.24.15-.44.34-.6.59s-.28.51-.37.81c-.08.29-.12.59-.12.89,0,.41.1.75.29,1,.19.25.49.38.88.38Z"/>
        <path class="cls-1" d="M47.35,9.43c-.31,0-.57-.05-.76-.15s-.34-.22-.44-.37-.19-.28-.25-.41h-.07l-.14.82h-.81l1.17-7.03h.84l-.44,2.64h.06c.09-.12.21-.25.34-.39.14-.14.31-.26.52-.36.21-.1.46-.15.77-.15.38,0,.72.08,1,.25.28.17.5.41.65.72.15.31.23.68.23,1.11,0,.41-.06.8-.18,1.2-.12.39-.3.75-.52,1.06-.23.32-.51.57-.83.76-.33.19-.7.28-1.12.28ZM47.24,8.68c.31,0,.59-.08.83-.23s.44-.35.6-.6c.16-.25.29-.52.37-.82.08-.3.12-.59.12-.88,0-.41-.1-.74-.29-.99-.2-.25-.49-.37-.88-.37-.31,0-.59.07-.83.22-.24.15-.44.34-.6.59s-.28.52-.36.81c-.08.3-.12.59-.12.89,0,.42.1.75.29,1,.2.25.49.37.87.37Z"/>
        <path class="cls-1" d="M50.13,11.25l.29-.73h.17c.16.05.3.05.44.02.13-.02.26-.09.38-.2.12-.11.24-.28.35-.5l.26-.5-1.13-5.22h.88l.6,3.07c.06.31.11.61.14.91s.07.6.11.88h-.29c.14-.29.27-.58.41-.88s.28-.61.44-.91l1.62-3.07h.95l-3.31,6.02c-.14.26-.3.48-.48.66-.18.18-.37.31-.58.39-.21.09-.43.13-.67.13-.13,0-.24,0-.34-.03-.1-.02-.18-.03-.23-.05Z"/>
      </g>
    </g>
  </g>
</svg>