<?xml version="1.0" encoding="UTF-8"?>
<svg xmlns="http://www.w3.org/2000/svg" version="1.1" xmlns:xlink="http://www.w3.org/1999/xlink" viewBox="0 0 20 14">
  <defs>
    <clipPath id="clippath">
      <rect class="cls-1" style="fill: none;" width="20" height="14"/>
    </clipPath>
    <clipPath id="clippath-1">
      <rect class="cls-1" style="fill: none;" x=".5" y=".2" width="19" height="13.5"/>
    </clipPath>
  </defs>
  <!-- Generator: Adobe Illustrator 28.7.0, SVG Export Plug-In . SVG Version: 1.2.0 Build 136)  -->
  <g>
    <g id="Layer_1">
      <g class="cls-4" style="clip-path: url(#clippath);">
        <g id="Artboard_5">
          <g id="Group_193">
            <g class="cls-2" style="clip-path: url(#clippath-1);">
              <g id="Group_191">
                <path id="Path_99" class="cls-3" style="fill: #00a1de;" d="M12,5.9c0,.2-.2.3-.3.3,0,0-.1,0-.2,0-.8-.8-2-.9-2.9-.1,0,0,0,0-.1.1-.1.1-.3.1-.4,0,0,0,0-.1,0-.2,0,0,0-.2,0-.2,0-1.1.9-2,2-2,1.1,0,2,.9,2,2,0,.1,0,.2,0,.3M10.1.6c0,0-.2,0-.3,0L.9,8.8s0,0,0,.2v4.3c0,.1.1.2.2.2,0,0,.1,0,.1,0l3.5-3.2c0,0,.2,0,.3,0l2.1,2.1c0,0,.2,0,.3,0l2.3-2c0,0,.2,0,.3,0l2.3,2c0,0,.2,0,.3,0l2.1-2.1c0,0,.2,0,.3,0l3.5,3.2c0,0,.2,0,.3,0,0,0,0,0,0-.1v-4.3c0,0,0-.1,0-.2L10.1.6Z"/>
                <path id="Path_100" class="cls-3" style="fill: #00a1de;" d="M18.9,13.8c-.1,0-.3,0-.4-.1l-3.5-3.1-2.1,2.1c-.2.2-.5.2-.8,0l-2.3-1.9-2.3,1.9c-.2.2-.6.2-.8,0l-2.1-2.1-3.5,3.1c-.2.2-.6.2-.8,0,0-.1-.1-.2-.1-.4v-4.3c0-.2,0-.3.2-.4L9.6.4c.2-.2.5-.2.8,0h0l8.9,8.1c.1.1.2.3.2.4v4.3c0,.3-.3.6-.6.6h0M15.1,9.8c.1,0,.3,0,.4.1l3.3,3v-4L10,.9,1.2,9v4l3.3-3c.2-.2.6-.2.8,0l2.1,2.1,2.3-1.9c.2-.2.5-.2.7,0l2.3,1.9,2.1-2.1c.1-.1.3-.2.4-.2M11.7,6.5c-.2,0-.3,0-.5-.2-.6-.7-1.7-.7-2.4-.1,0,0,0,0-.1.1-.2.3-.6.3-.9,0-.1-.1-.2-.2-.2-.4,0,0,0-.2,0-.3,0-1.3,1.1-2.4,2.4-2.4s2.4,1.1,2.4,2.4c0,0,0,.2,0,.3,0,.2-.2.5-.4.5,0,0-.1,0-.2,0M10,5.1c.6,0,1.2.3,1.7.7v-.2c0-.9-.8-1.7-1.7-1.7s-1.7.8-1.7,1.7h0c.4-.3,1.1-.6,1.7-.6"/>
              </g>
            </g>
          </g>
        </g>
      </g>
    </g>
  </g>
</svg>