<svg width="16" height="16" viewBox="0 0 16 16" fill="none" xmlns="http://www.w3.org/2000/svg">
<path d="M2.55556 15L2.55556 10.3333M2.55556 10.3333C3.41467 10.3333 4.11111 9.63689 4.11111 8.77778C4.11111 7.91867 3.41467 7.22222 2.55556 7.22222C1.69645 7.22222 1 7.91867 1 8.77778C1 9.63689 1.69645 10.3333 2.55556 10.3333ZM2.55556 4.11111V1M8 15V10.3333M8 4.11111V1M8 4.11111C7.14089 4.11111 6.44444 4.80756 6.44444 5.66667C6.44444 6.52578 7.14089 7.22222 8 7.22222C8.85911 7.22222 9.55556 6.52578 9.55556 5.66667C9.55556 4.80756 8.85911 4.11111 8 4.11111ZM13.4444 15V11.8889M13.4444 11.8889C14.3036 11.8889 15 11.1924 15 10.3333C15 9.47422 14.3036 8.77778 13.4444 8.77778C12.5853 8.77778 11.8889 9.47422 11.8889 10.3333C11.8889 11.1924 12.5853 11.8889 13.4444 11.8889ZM13.4444 5.66667V1" stroke="#1C1C1E" stroke-width="1.5" stroke-linecap="round" stroke-linejoin="round"/>
</svg>
