<svg width="18" height="20" viewBox="0 0 18 20" fill="none" xmlns="http://www.w3.org/2000/svg">
<path d="M10.8333 1.0804V4.86673C10.8333 5.38011 10.8333 5.6368 10.9332 5.83289C11.0211 6.00537 11.1613 6.1456 11.3338 6.23349C11.5299 6.3334 11.7866 6.3334 12.3 6.3334H16.0863M10.8333 14.5833H5.33329M12.6666 10.9167H5.33329M16.3333 8.15587V14.7667C16.3333 16.3068 16.3333 17.0769 16.0336 17.6651C15.7699 18.1826 15.3492 18.6033 14.8318 18.8669C14.2435 19.1667 13.4734 19.1667 11.9333 19.1667H6.06663C4.52648 19.1667 3.75641 19.1667 3.16815 18.8669C2.65071 18.6033 2.23001 18.1826 1.96636 17.6651C1.66663 17.0769 1.66663 16.3068 1.66663 14.7667V5.23333C1.66663 3.69319 1.66663 2.92312 1.96636 2.33486C2.23001 1.81741 2.65071 1.39672 3.16815 1.13307C3.75641 0.833333 4.52648 0.833333 6.06663 0.833333H9.01075C9.68338 0.833333 10.0197 0.833333 10.3362 0.909316C10.6168 0.976682 10.885 1.08779 11.1311 1.23857C11.4086 1.40864 11.6464 1.64645 12.122 2.12206L15.0446 5.0446C15.5202 5.52022 15.758 5.75803 15.9281 6.03555C16.0788 6.2816 16.1899 6.54985 16.2573 6.83045C16.3333 7.14694 16.3333 7.48325 16.3333 8.15587Z" stroke="#1C1C1E" stroke-width="1.5" stroke-linecap="round" stroke-linejoin="round"/>
</svg>
