<svg width="32" height="32" viewBox="0 0 32 32" fill="none" xmlns="http://www.w3.org/2000/svg">
<path d="M28 8V28C28 30.2667 26.2667 32 24 32H8C5.73333 32 4 30.2667 4 28V4C4 1.73333 5.73333 0 8 0H20L28 8Z" fill="#E8ECEF"/>
<path d="M15.9999 18C15.0666 18 14.3999 18.6667 14.3999 19.6C14.3999 20.5333 15.0666 21.2 15.9999 21.2C16.9332 21.2 17.5999 20.5333 17.5999 19.6C17.5999 18.6667 16.9332 18 15.9999 18Z" fill="#FFA600"/>
<path d="M23.0667 14.6667H9.06667C8.4 14.6667 8 15.0667 8 15.7333V25.7333C8 26.2667 8.4 26.6667 9.06667 26.6667H23.0667C23.6 26.6667 24 26.2667 24.1333 25.6V15.6C24 15.0667 23.6 14.6667 23.0667 14.6667ZM21.7333 19.4667C21.3333 19.0667 20.5333 19.0667 20.1333 19.4667L15.0667 24.5333C14.8 24.8 14.4 24.8 14.1333 24.5333L12 22.6667C11.6 22.2667 10.8 22.2667 10.4 22.6667L9.33333 23.7333V16H22.6667V20.5333L21.7333 19.4667Z" fill="#039205"/>
<path d="M20 0V5.33333C20 6.8 21.2 8 22.6667 8H28L20 0Z" fill="#C7D0DD"/>
</svg>
