<svg width="22" height="22" viewBox="0 0 22 22" fill="none" xmlns="http://www.w3.org/2000/svg">
<path d="M14.6667 7.33334V4.1256C14.6667 3.36318 14.6667 2.98196 14.5061 2.74769C14.3657 2.543 14.1484 2.40396 13.9038 2.36233C13.6238 2.31468 13.2776 2.47443 12.5854 2.79393L4.4541 6.54683C3.83671 6.83177 3.52802 6.97425 3.30193 7.19521C3.10205 7.39055 2.94948 7.62901 2.85588 7.89235C2.75 8.19023 2.75 8.53021 2.75 9.21018V13.75M15.125 13.2917H15.1342M2.75 10.2667L2.75 16.3167C2.75 17.3434 2.75 17.8568 2.94982 18.249C3.12559 18.5939 3.40605 18.8744 3.75102 19.0502C4.14319 19.25 4.65657 19.25 5.68333 19.25H16.3167C17.3434 19.25 17.8568 19.25 18.249 19.0502C18.5939 18.8744 18.8744 18.5939 19.0502 18.249C19.25 17.8568 19.25 17.3434 19.25 16.3167V10.2667C19.25 9.23991 19.25 8.72653 19.0502 8.33435C18.8744 7.98939 18.5939 7.70893 18.249 7.53316C17.8568 7.33334 17.3434 7.33334 16.3167 7.33334L5.68333 7.33334C4.65657 7.33334 4.14319 7.33334 3.75102 7.53316C3.40605 7.70892 3.12559 7.98939 2.94982 8.33435C2.75 8.72652 2.75 9.23991 2.75 10.2667ZM15.5833 13.2917C15.5833 13.5448 15.3781 13.75 15.125 13.75C14.8719 13.75 14.6667 13.5448 14.6667 13.2917C14.6667 13.0385 14.8719 12.8333 15.125 12.8333C15.3781 12.8333 15.5833 13.0385 15.5833 13.2917Z" stroke="#1C1C1E" stroke-width="1.5" stroke-linecap="round" stroke-linejoin="round"/>
</svg>
