<svg width="22" height="22" viewBox="0 0 22 22" fill="none" xmlns="http://www.w3.org/2000/svg">
<path d="M12.402 7.65586C11.8772 8.02995 11.2351 8.24999 10.5416 8.24999C8.76967 8.24999 7.33325 6.81358 7.33325 5.04166C7.33325 3.26975 8.76967 1.83333 10.5416 1.83333C11.6902 1.83333 12.6978 2.43688 13.2646 3.34413M5.49992 18.4132H7.89268C8.20466 18.4132 8.51473 18.4503 8.81716 18.5246L11.3454 19.139C11.894 19.2726 12.4655 19.2856 13.0198 19.1779L15.8151 18.6341C16.5536 18.4902 17.2329 18.1367 17.7652 17.6188L19.743 15.6949C20.3078 15.1464 20.3078 14.2564 19.743 13.707C19.2345 13.2123 18.4293 13.1566 17.854 13.5761L15.549 15.2578C15.2189 15.4991 14.8172 15.629 14.4041 15.629H12.1783L13.5951 15.6289C14.3936 15.6289 15.0405 14.9997 15.0405 14.2229V13.9417C15.0405 13.2967 14.5892 12.7343 13.9462 12.5784L11.7595 12.0466C11.4036 11.9603 11.0392 11.9167 10.6728 11.9167C9.78839 11.9167 8.18749 12.6489 8.18749 12.6489L5.49992 13.7728M18.3333 5.95833C18.3333 7.73024 16.8968 9.16666 15.1249 9.16666C13.353 9.16666 11.9166 7.73024 11.9166 5.95833C11.9166 4.18641 13.353 2.74999 15.1249 2.74999C16.8968 2.74999 18.3333 4.18641 18.3333 5.95833ZM1.83325 13.3833L1.83325 18.7C1.83325 19.2134 1.83325 19.4701 1.93316 19.6662C2.02105 19.8386 2.16128 19.9789 2.33376 20.0667C2.52985 20.1667 2.78654 20.1667 3.29992 20.1667H4.03325C4.54663 20.1667 4.80332 20.1667 4.99941 20.0668C5.17189 19.9789 5.31212 19.8386 5.40001 19.6662C5.49992 19.4701 5.49992 19.2134 5.49992 18.7V13.3833C5.49992 12.8699 5.49992 12.6133 5.40001 12.4172C5.31212 12.2447 5.17189 12.1045 4.99941 12.0166C4.80332 11.9167 4.54663 11.9167 4.03325 11.9167L3.29992 11.9167C2.78654 11.9167 2.52985 11.9167 2.33376 12.0166C2.16128 12.1045 2.02105 12.2447 1.93316 12.4172C1.83325 12.6133 1.83325 12.8699 1.83325 13.3833Z" stroke="#1C1C1E" stroke-width="1.5" stroke-linecap="round" stroke-linejoin="round"/>
</svg>
