<svg width="24" height="24" viewBox="0 0 24 24" fill="none" xmlns="http://www.w3.org/2000/svg">
<path d="M10.6848 8.63638C11.4103 8.09215 12.2931 7.79859 13.2 7.79998C14.1432 7.79998 15.0144 8.11198 15.7152 8.63638L14.4192 9.93238C14.05 9.7141 13.6289 9.59928 13.2 9.59998C12.756 9.59998 12.3384 9.72118 11.9808 9.93238L10.6848 8.63638ZM15.6 12C15.6 11.556 15.4788 11.1384 15.2676 10.7808L16.5636 9.48478C17.0892 10.1856 17.4 11.0568 17.4 12C17.4 12.9432 17.088 13.8144 16.5636 14.5152L15.2676 13.2192C15.4859 12.85 15.6007 12.4289 15.6 12ZM13.2 14.4C13.644 14.4 14.0616 14.2788 14.4192 14.0676L15.7152 15.3636C14.9897 15.9078 14.1069 16.2014 13.2 16.2C12.2568 16.2 11.3856 15.888 10.6848 15.3636L11.9808 14.0676C12.35 14.2858 12.7711 14.4007 13.2 14.4ZM10.8 12C10.8 12.444 10.9212 12.8616 11.1324 13.2192L9.83641 14.5152C9.29218 13.7897 8.99863 12.9069 9.00001 12C9.00001 11.0568 9.31201 10.1856 9.83641 9.48478L11.1324 10.7808C10.9141 11.15 10.7993 11.5711 10.8 12ZM7.32121 5.99998C6.52184 6.78123 5.88694 7.71459 5.45394 8.74505C5.02094 9.77552 4.7986 10.8822 4.80001 12C4.80001 13.2888 5.09041 14.508 5.60881 15.6H4.20001C4.04088 15.6 3.88827 15.6632 3.77575 15.7757C3.66323 15.8882 3.60001 16.0408 3.60001 16.2C3.60001 16.3591 3.66323 16.5117 3.77575 16.6242C3.88827 16.7368 4.04088 16.8 4.20001 16.8H6.30601C6.60601 17.232 6.94681 17.6328 7.32121 18H1.80001C1.64088 18 1.48827 18.0632 1.37575 18.1757C1.26323 18.2882 1.20001 18.4408 1.20001 18.6C1.20001 18.7591 1.26323 18.9117 1.37575 19.0242C1.48827 19.1368 1.64088 19.2 1.80001 19.2H8.87041C10.145 19.9659 11.6 20.3797 13.0868 20.3993C14.5737 20.4188 16.039 20.0433 17.3333 19.3111C18.6275 18.5789 19.7041 17.5163 20.4532 16.2318C21.2024 14.9473 21.5971 13.4869 21.5971 12C21.5971 10.513 21.2024 9.05268 20.4532 7.76819C19.7041 6.4837 18.6275 5.42108 17.3333 4.68889C16.039 3.9567 14.5737 3.58118 13.0868 3.6007C11.6 3.62022 10.145 4.03407 8.87041 4.79998H3.00001C2.84088 4.79998 2.68827 4.86319 2.57575 4.97571C2.46323 5.08823 2.40001 5.24085 2.40001 5.39998C2.40001 5.55911 2.46323 5.71172 2.57575 5.82424C2.68827 5.93676 2.84088 5.99998 3.00001 5.99998H7.32121ZM13.2 10.8C13.5183 10.8 13.8235 10.9264 14.0485 11.1514C14.2736 11.3765 14.4 11.6817 14.4 12C14.4 12.3182 14.2736 12.6235 14.0485 12.8485C13.8235 13.0735 13.5183 13.2 13.2 13.2C12.8818 13.2 12.5765 13.0735 12.3515 12.8485C12.1264 12.6235 12 12.3182 12 12C12 11.6817 12.1264 11.3765 12.3515 11.1514C12.5765 10.9264 12.8818 10.8 13.2 10.8Z" fill="white"/>
</svg>
