<svg width="154" height="154" viewBox="0 0 154 154" fill="none" xmlns="http://www.w3.org/2000/svg">
<circle cx="77" cy="77" r="77" fill="#FDB913"/>
<ellipse cx="77" cy="76.9589" rx="65" ry="65.9125" stroke="black" stroke-width="9.11215"/>
<ellipse cx="76.8481" cy="61.7128" rx="25.3621" ry="25.7182" fill="black"/>
<path d="M108.741 137.635C108.741 129 129.616 128.057 126.357 120.079C123.099 112.101 128.724 120.498 122.703 114.391C116.681 108.285 109.532 103.441 101.664 100.137C93.7966 96.8319 85.364 95.131 76.8481 95.131C68.3321 95.131 59.8995 96.8319 52.0318 100.137C44.164 103.441 37.0152 108.285 30.9935 114.391C24.9718 120.498 26.8009 107.943 23.542 115.921C20.2831 123.899 25.8201 113.908 25.8201 122.543L68.1916 142.871L108.741 137.635Z" fill="black"/>
</svg>
