<svg width="12" height="13" viewBox="0 0 12 13" fill="none" xmlns="http://www.w3.org/2000/svg">
<path d="M3.08325 5.93016V4.18016C3.08325 2.56932 4.38909 1.26349 5.99992 1.26349C7.41098 1.26349 8.588 2.26552 8.85824 3.59682M4.13325 11.7635H7.86659C8.84668 11.7635 9.33672 11.7635 9.71107 11.5727C10.0404 11.405 10.3081 11.1373 10.4758 10.808C10.6666 10.4336 10.6666 9.94358 10.6666 8.96349V8.73016C10.6666 7.75006 10.6666 7.26002 10.4758 6.88567C10.3081 6.55639 10.0404 6.28867 9.71107 6.12089C9.33672 5.93016 8.84668 5.93016 7.86659 5.93016H4.13325C3.15316 5.93016 2.66311 5.93016 2.28877 6.12089C1.95949 6.28867 1.69177 6.55639 1.52399 6.88567C1.33325 7.26002 1.33325 7.75006 1.33325 8.73016V8.96349C1.33325 9.94358 1.33325 10.4336 1.52399 10.808C1.69177 11.1373 1.95949 11.405 2.28877 11.5727C2.66311 11.7635 3.15316 11.7635 4.13325 11.7635Z" stroke="#1C1C1E" stroke-width="1.5" stroke-linecap="round" stroke-linejoin="round"/>
</svg>
