<?xml version="1.0" encoding="UTF-8"?>
<svg xmlns="http://www.w3.org/2000/svg" version="1.1" viewBox="0 0 45 45">
  <!-- Generator: Adobe Illustrator 28.7.0, SVG Export Plug-In . SVG Version: 1.2.0 Build 136)  -->
  <g>
    <g id="Layer_1">
      <g id="Group_207">
        <path id="Path_16" class="cls-1" style="fill: #00a1de;" d="M35.8,7.2c8.5,7.4,9.4,20.2,2,28.7-7.4,8.5-20.2,9.4-28.7,2C.7,30.5-.2,17.7,7.2,9.2c0,0,0,0,0,0,.6-.7,1.3-1.4,2-2,2.2,3.1,4.4,6.1,6.6,9.2l6.7,9.3c4.5-6.1,8.9-12.2,13.3-18.4"/>
        <path id="Path_17" class="cls-1" style="fill: #00a1de;" d="M22.5,19.4c-1.2-1.6-2.3-3.1-3.4-4.7l-6.6-9.1-.2-.2c-.2-.4-.2-.4.2-.6,1.9-1.1,4-1.9,6.2-2.3,4.6-.9,9.4-.1,13.5,2.1l.5.3c0,0,.1.1.2.2-3.5,4.8-6.9,9.5-10.4,14.3"/>
      </g>
    </g>
  </g>
</svg>