<svg width="24" height="24" viewBox="0 0 24 24" fill="none" xmlns="http://www.w3.org/2000/svg">
<path d="M2.25 17.25H21.75V18.75H2.25V17.25ZM3.75 19.5H20.25V21H3.75V19.5ZM22.5 8.25C21.3069 8.24864 20.1631 7.77409 19.3195 6.93047C18.4759 6.08686 18.0014 4.94306 18 3.75V3H6V3.75C5.99864 4.94306 5.52409 6.08686 4.68047 6.93047C3.83686 7.77409 2.69306 8.24864 1.5 8.25H0.75V11.25H1.5C2.69306 11.2514 3.83686 11.7259 4.68047 12.5695C5.52409 13.4131 5.99864 14.5569 6 15.75V16.5H18V15.75C18.0014 14.5569 18.4759 13.4131 19.3195 12.5695C20.1631 11.7259 21.3069 11.2514 22.5 11.25H23.25V8.25H22.5ZM12 14.25C11.11 14.25 10.24 13.9861 9.49993 13.4916C8.75991 12.9971 8.18314 12.2943 7.84254 11.4721C7.50195 10.6498 7.41283 9.74501 7.58647 8.87209C7.7601 7.99918 8.18868 7.19736 8.81802 6.56802C9.44736 5.93868 10.2492 5.5101 11.1221 5.33647C11.995 5.16283 12.8998 5.25195 13.7221 5.59254C14.5443 5.93314 15.2471 6.50991 15.7416 7.24993C16.2361 7.98995 16.5 8.85998 16.5 9.75C16.4986 10.9431 16.0241 12.0869 15.1805 12.9305C14.3369 13.7741 13.1931 14.2486 12 14.25Z" fill="white"/>
<path d="M4.5 3.75V3H0.75V6.75H1.5C2.29538 6.74913 3.05794 6.43278 3.62036 5.87036C4.18278 5.30794 4.49913 4.54538 4.5 3.75ZM1.5 12.75H0.75V16.5H4.5V15.75C4.49913 14.9546 4.18278 14.1921 3.62036 13.6296C3.05794 13.0672 2.29538 12.7509 1.5 12.75ZM22.5 6.75H23.25V3H19.5V3.75C19.5009 4.54538 19.8172 5.30794 20.3796 5.87036C20.9421 6.43278 21.7046 6.74913 22.5 6.75ZM19.5 15.75V16.5H23.25V12.75H22.5C21.7046 12.7509 20.9421 13.0672 20.3796 13.6296C19.8172 14.1921 19.5009 14.9546 19.5 15.75Z" fill="white"/>
<path d="M12 12.75C13.6569 12.75 15 11.4069 15 9.75C15 8.09315 13.6569 6.75 12 6.75C10.3431 6.75 9 8.09315 9 9.75C9 11.4069 10.3431 12.75 12 12.75Z" fill="white"/>
</svg>
