<svg width="22" height="22" viewBox="0 0 22 22" fill="none" xmlns="http://www.w3.org/2000/svg">
<path d="M1.83325 15.5833V15.4457C1.83325 15.1555 1.83325 15.0105 1.85544 14.8692C1.87514 14.7437 1.90783 14.6206 1.95298 14.5019C2.00383 14.3682 2.0758 14.2422 2.21974 13.9903L5.49992 8.25M1.83325 15.5833C1.83325 17.6084 3.47487 19.25 5.49992 19.25C7.52496 19.25 9.16658 17.6084 9.16658 15.5833M1.83325 15.5833V15.4C1.83325 15.1433 1.83325 15.015 1.88321 14.9169C1.92715 14.8307 1.99727 14.7606 2.08351 14.7166C2.18155 14.6667 2.30989 14.6667 2.56659 14.6667H8.43325C8.68994 14.6667 8.81829 14.6667 8.91633 14.7166C9.00257 14.7606 9.07269 14.8307 9.11663 14.9169C9.16658 15.015 9.16658 15.1433 9.16658 15.4V15.5833M5.49992 8.25L8.7801 13.9903C8.92403 14.2422 8.99601 14.3682 9.04686 14.5019C9.092 14.6206 9.12469 14.7437 9.1444 14.8692C9.16658 15.0105 9.16658 15.1555 9.16658 15.4457V15.5833M5.49992 8.25L16.4999 6.41667M12.8333 13.75V13.6123C12.8333 13.3222 12.8333 13.1771 12.8554 13.0358C12.8751 12.9103 12.9078 12.7873 12.953 12.6685C13.0038 12.5348 13.0758 12.4089 13.2197 12.157L16.4999 6.41667M12.8333 13.75C12.8333 15.775 14.4749 17.4167 16.4999 17.4167C18.525 17.4167 20.1666 15.775 20.1666 13.75M12.8333 13.75V13.5667C12.8333 13.31 12.8333 13.1816 12.8832 13.0836C12.9271 12.9973 12.9973 12.9272 13.0835 12.8833C13.1815 12.8333 13.3099 12.8333 13.5666 12.8333H19.4333C19.6899 12.8333 19.8183 12.8333 19.9163 12.8833C20.0026 12.9272 20.0727 12.9973 20.1166 13.0836C20.1666 13.1816 20.1666 13.31 20.1666 13.5667V13.75M16.4999 6.41667L19.7801 12.157C19.924 12.4089 19.996 12.5348 20.0469 12.6685C20.092 12.7873 20.1247 12.9103 20.1444 13.0358C20.1666 13.1771 20.1666 13.3222 20.1666 13.6123V13.75M10.9999 2.75V7.33333" stroke="#1C1C1E" stroke-width="1.5" stroke-linecap="round" stroke-linejoin="round"/>
</svg>
