<svg width="32" height="32" viewBox="0 0 32 32" fill="none" xmlns="http://www.w3.org/2000/svg">
<path d="M3.2002 27.2C3.2002 28.0837 3.91646 28.8 4.8002 28.8H6.93353V25.0667H4.26686C4.26686 25.0667 3.2002 25.0667 3.2002 27.2Z" fill="#4B84DD"/>
<path d="M28.7999 6.39999V29.3333C28.7999 30.5115 27.8447 31.4667 26.6666 31.4667H8.53324C7.3551 31.4667 6.3999 30.5115 6.3999 29.3333V2.66666C6.3999 1.48853 7.3551 0.533325 8.53324 0.533325H22.9332L28.7999 6.39999Z" fill="#E8ECEF"/>
<path d="M28.7998 6.39999H23.4664C23.1731 6.39999 22.9331 6.15999 22.9331 5.86666V0.533325L28.7998 6.39999Z" fill="#C7D0DD"/>
<path d="M4.8002 25.6H24.0002C24.8839 25.6 25.6002 24.8837 25.6002 24V16.5333C25.6002 15.6496 24.8839 14.9333 24.0002 14.9333H4.8002C3.91646 14.9333 3.2002 15.6496 3.2002 16.5333V27.2C3.2002 26.3163 3.91646 25.6 4.8002 25.6Z" fill="#11A0DB"/>
<path d="M10.6664 17.0667H7.46644C7.17151 17.0667 6.93311 17.3051 6.93311 17.6C6.93311 17.8949 7.17151 18.1333 7.46644 18.1333H8.53311V22.9333C8.53311 23.2283 8.77151 23.4667 9.06644 23.4667C9.36137 23.4667 9.59977 23.2283 9.59977 22.9333V18.1333H10.6664C10.9614 18.1333 11.1998 17.8949 11.1998 17.6C11.1998 17.3051 10.9614 17.0667 10.6664 17.0667Z" fill="white"/>
<path d="M16.275 17.1429C16.0222 16.9915 15.6947 17.0736 15.5432 17.3259L14.4003 19.2304L13.2574 17.3259C13.1059 17.0736 12.779 16.9915 12.5256 17.1429C12.2728 17.2944 12.1912 17.6219 12.3427 17.8747L13.7779 20.2667L12.3427 22.6587C12.1912 22.9115 12.2728 23.2389 12.5256 23.3904C12.6115 23.4421 12.7064 23.4667 12.7998 23.4667C12.9811 23.4667 13.1576 23.3744 13.2574 23.208L14.4003 21.3035L15.5432 23.208C15.6435 23.3744 15.82 23.4667 16.0008 23.4667C16.0942 23.4667 16.1891 23.4421 16.275 23.3904C16.5278 23.2389 16.6094 22.9115 16.4579 22.6587L15.0227 20.2667L16.4579 17.8747C16.6094 17.6219 16.5278 17.2944 16.275 17.1429Z" fill="white"/>
<path d="M21.3334 17.0667H18.1334C17.8385 17.0667 17.6001 17.3051 17.6001 17.6C17.6001 17.8949 17.8385 18.1333 18.1334 18.1333H19.2001V22.9333C19.2001 23.2283 19.4385 23.4667 19.7334 23.4667C20.0284 23.4667 20.2668 23.2283 20.2668 22.9333V18.1333H21.3334C21.6284 18.1333 21.8668 17.8949 21.8668 17.6C21.8668 17.3051 21.6284 17.0667 21.3334 17.0667Z" fill="white"/>
</svg>
