<svg width="22" height="22" viewBox="0 0 22 22" fill="none" xmlns="http://www.w3.org/2000/svg">
<path d="M12.8333 2.0804V5.86673C12.8333 6.38011 12.8333 6.6368 12.9332 6.83289C13.0211 7.00537 13.1613 7.1456 13.3338 7.23349C13.5299 7.3334 13.7866 7.3334 14.3 7.3334H18.0863M12.8333 15.5833H7.33329M14.6666 11.9167H7.33329M18.3333 9.15587V15.7667C18.3333 17.3068 18.3333 18.0769 18.0336 18.6651C17.7699 19.1826 17.3492 19.6033 16.8318 19.8669C16.2435 20.1667 15.4734 20.1667 13.9333 20.1667H8.06663C6.52648 20.1667 5.75641 20.1667 5.16815 19.8669C4.65071 19.6033 4.23001 19.1826 3.96636 18.6651C3.66663 18.0769 3.66663 17.3068 3.66663 15.7667V6.23333C3.66663 4.69319 3.66663 3.92312 3.96636 3.33486C4.23001 2.81741 4.65071 2.39672 5.16815 2.13307C5.75641 1.83333 6.52648 1.83333 8.06663 1.83333H11.0108C11.6834 1.83333 12.0197 1.83333 12.3362 1.90932C12.6168 1.97668 12.885 2.08779 13.1311 2.23857C13.4086 2.40864 13.6464 2.64645 14.122 3.12206L17.0446 6.0446C17.5202 6.52022 17.758 6.75803 17.9281 7.03555C18.0788 7.2816 18.1899 7.54985 18.2573 7.83045C18.3333 8.14694 18.3333 8.48325 18.3333 9.15587Z" stroke="#1C1C1E" stroke-width="1.5" stroke-linecap="round" stroke-linejoin="round"/>
</svg>
