<svg width="32" height="32" viewBox="0 0 32 32" fill="none" xmlns="http://www.w3.org/2000/svg">
<path fill-rule="evenodd" clip-rule="evenodd" d="M16 3.59095C9.14669 3.59095 3.59095 9.14669 3.59095 16C3.59095 22.8534 9.14669 28.4091 16 28.4091C22.8534 28.4091 28.4091 22.8534 28.4091 16C28.4091 9.14669 22.8534 3.59095 16 3.59095ZM0.833374 16C0.833374 7.62372 7.62372 0.833374 16 0.833374C24.3763 0.833374 31.1667 7.62372 31.1667 16C31.1667 24.3763 24.3763 31.1667 16 31.1667C7.62372 31.1667 0.833374 24.3763 0.833374 16ZM16 7.72731C16.7615 7.72731 17.3788 8.34462 17.3788 9.1061V17.3788C17.3788 18.1403 16.7615 18.7576 16 18.7576C15.2385 18.7576 14.6213 18.1403 14.6213 17.3788V9.1061C14.6213 8.34462 15.2385 7.72731 16 7.72731ZM16 24.2728C16.7615 24.2728 17.3788 23.6555 17.3788 22.894C17.3788 22.1325 16.7615 21.5152 16 21.5152C15.2385 21.5152 14.6213 22.1325 14.6213 22.894C14.6213 23.6555 15.2385 24.2728 16 24.2728Z" fill="#BBBBBB"/>
</svg>
