<?xml version="1.0" standalone="no"?>
<!DOCTYPE svg PUBLIC "-//W3C//DTD SVG 20010904//EN"
 "http://www.w3.org/TR/2001/REC-SVG-20010904/DTD/svg10.dtd">
<svg version="1.0" xmlns="http://www.w3.org/2000/svg"
 width="1024.000000pt" height="1024.000000pt" viewBox="0 0 1024.000000 1024.000000"
 preserveAspectRatio="xMidYMid meet">

<g transform="translate(0.000000,1024.000000) scale(0.100000,-0.100000)"
fill="#000000" stroke="none">
<path d="M4750 10229 c-1124 -90 -2130 -508 -2979 -1238 -238 -205 -552 -542
-751 -806 -1033 -1376 -1301 -3198 -709 -4822 203 -555 493 -1057 887 -1533
124 -149 485 -510 632 -632 621 -511 1278 -848 2023 -1037 2130 -540 4338 319
5552 2158 1012 1535 1110 3536 253 5171 -339 647 -827 1230 -1403 1676 -780
604 -1664 953 -2675 1054 -144 15 -689 21 -830 9z m830 -894 c532 -62 993
-199 1460 -435 690 -349 1283 -897 1698 -1570 91 -147 258 -478 318 -630 293
-744 374 -1528 239 -2324 -9 -50 -36 -172 -60 -271 -250 -1019 -866 -1901
-1742 -2495 -573 -389 -1201 -620 -1923 -707 -204 -24 -696 -24 -900 0 -726
87 -1347 316 -1923 707 -877 595 -1490 1473 -1742 2495 -89 361 -120 618 -120
1015 0 300 8 409 46 655 246 1577 1367 2890 2892 3384 303 98 620 160 1007
195 102 9 621 -4 750 -19z"/>
<path d="M4860 7805 c0 -292 -3 -376 -12 -379 -7 -2 -69 -13 -138 -25 -616
-107 -1000 -505 -1070 -1111 -19 -157 -8 -492 18 -592 41 -154 122 -276 261
-395 114 -97 207 -155 406 -253 292 -143 647 -273 1040 -381 105 -28 213 -63
240 -76 80 -40 166 -106 237 -182 81 -85 98 -132 98 -265 -1 -183 -55 -334
-142 -393 -56 -37 -168 -75 -293 -100 -135 -27 -497 -24 -655 5 -310 57 -521
153 -678 308 l-73 72 -319 -295 -320 -294 22 -32 c79 -114 174 -198 324 -289
227 -136 567 -250 918 -309 l136 -23 0 -368 0 -368 260 0 260 0 0 353 0 354
124 16 c407 55 735 228 1046 553 276 287 407 679 371 1108 -33 396 -186 681
-470 875 -232 158 -465 253 -998 406 -453 131 -689 223 -791 310 -90 78 -120
220 -68 330 42 91 170 183 296 213 208 50 639 33 835 -33 123 -41 279 -129
356 -202 l26 -24 278 302 277 301 -63 65 c-158 160 -413 290 -729 369 -140 35
-373 74 -447 74 l-43 0 0 375 0 375 -260 0 -260 0 0 -375z"/>
</g>
</svg>
