<svg width="24" height="25" viewBox="0 0 24 25" fill="none" xmlns="http://www.w3.org/2000/svg">
<path d="M12 13.1553C12.5523 13.1553 13 12.7076 13 12.1553C13 11.603 12.5523 11.1553 12 11.1553C11.4477 11.1553 11 11.603 11 12.1553C11 12.7076 11.4477 13.1553 12 13.1553Z" stroke="white" stroke-width="2" stroke-linecap="round" stroke-linejoin="round"/>
<path d="M12 6.15527C12.5523 6.15527 13 5.70756 13 5.15527C13 4.60299 12.5523 4.15527 12 4.15527C11.4477 4.15527 11 4.60299 11 5.15527C11 5.70756 11.4477 6.15527 12 6.15527Z" stroke="white" stroke-width="2" stroke-linecap="round" stroke-linejoin="round"/>
<path d="M12 20.1553C12.5523 20.1553 13 19.7076 13 19.1553C13 18.603 12.5523 18.1553 12 18.1553C11.4477 18.1553 11 18.603 11 19.1553C11 19.7076 11.4477 20.1553 12 20.1553Z" stroke="white" stroke-width="2" stroke-linecap="round" stroke-linejoin="round"/>
</svg>
