<?xml version="1.0" encoding="UTF-8"?>
<svg xmlns="http://www.w3.org/2000/svg" version="1.1" viewBox="0 0 20 20">
  <!-- Generator: Adobe Illustrator 28.7.0, SVG Export Plug-In . SVG Version: 1.2.0 Build 136)  -->
  <g>
    <g id="Layer_1">
      <rect class="cls-1" width="20" height="20" style="fill: none;"/>
      <g id="Artboard_1">
        <g id="filters-2_curved">
          <g id="Path_35">
            <path class="cls-2" style="fill: #798398;" d="M4.2,19.3c-1.4,0-2.6-1.1-2.6-2.6s1.1-2.6,2.6-2.6,2.2.8,2.5,1.9h11c.3,0,.6.3.6.6s-.3.6-.6.6H6.7c-.3,1.1-1.3,1.9-2.5,1.9ZM4.2,15.5c-.7,0-1.3.6-1.3,1.3s.6,1.3,1.3,1.3c.7,0,1.3-.6,1.3-1.3s0,0,0,0c0-.7-.6-1.3-1.3-1.3ZM15.8,12.6c-1.2,0-2.2-.8-2.5-1.9H2.3c-.3,0-.6-.3-.6-.6s.3-.6.6-.6h11c.3-1.1,1.3-1.9,2.5-1.9s2.6,1.1,2.6,2.6-1.1,2.6-2.6,2.6ZM15.8,8.7c-.7,0-1.3.6-1.3,1.3s.6,1.3,1.3,1.3,1.3-.6,1.3-1.3-.6-1.3-1.3-1.3ZM10,5.9s0,0,0,0c-.7,0-1.3-.3-1.8-.8-.3-.3-.5-.7-.6-1.2H2.3c-.3,0-.6-.3-.6-.6s.3-.6.6-.6h5.2c.1-.4.3-.8.6-1.2.5-.5,1.1-.8,1.8-.8.7,0,1.3.2,1.8.7.4.3.6.8.7,1.3h5.2c.3,0,.6.3.6.6s-.3.6-.6.6h-5.2c-.1.5-.4.9-.7,1.3-.5.5-1.1.7-1.8.7ZM8.7,3.3c0,.3.1.7.4.9.2.3.6.4.9.4.7,0,1.3-.6,1.3-1.3,0,0,0,0,0,0,0,0,0,0,0,0,0-.4-.2-.7-.4-1-.3-.2-.6-.4-.9-.4-.3,0-.7.2-.9.4-.2.3-.4.6-.4.9h0Z"/>
          </g>
        </g>
      </g>
    </g>
  </g>
</svg>