<svg width="24" height="24" viewBox="0 0 24 24" fill="none" xmlns="http://www.w3.org/2000/svg">
<path d="M12.6 2.40002C12.4409 2.40002 12.2883 2.46324 12.1757 2.57576C12.0632 2.68828 12 2.84089 12 3.00002V6.12002C12 7.77242 13.1124 9.16322 14.628 9.58802C14.364 12.876 13.4136 15.33 12.6348 16.8432C12.8556 17.1024 13.0632 17.2956 13.2252 17.4312C13.848 17.952 14.4 18.8004 14.4 19.8588C14.4008 20.4854 14.2006 21.0957 13.8288 21.6H20.4C20.8774 21.6 21.3352 21.4104 21.6728 21.0728C22.0104 20.7353 22.2 20.2774 22.2 19.8V19.4316C22.2 19.014 22.0572 18.6288 21.8376 18.3132C21.1896 17.3808 19.3548 14.3652 18.9708 9.58682C19.7272 9.3748 20.3935 8.92128 20.8682 8.29538C21.3428 7.66949 21.5998 6.90556 21.6 6.12002V3.00002C21.6 2.84089 21.5368 2.68828 21.4243 2.57576C21.3117 2.46324 21.1591 2.40002 21 2.40002H20.1C19.8613 2.40002 19.6324 2.49485 19.4636 2.66363C19.2948 2.83241 19.2 3.06133 19.2 3.30002V4.20002C19.2002 4.27882 19.1848 4.35687 19.1548 4.42973C19.1248 4.50258 19.0807 4.56881 19.0251 4.62464C18.9128 4.73739 18.7603 4.80091 18.6012 4.80122C18.4421 4.80154 18.2893 4.73863 18.1766 4.62634C18.0638 4.51404 18.0003 4.36155 18 4.20242V4.20002L17.9952 3.29522C17.9939 3.05736 17.8985 2.82968 17.7299 2.66193C17.5613 2.49418 17.3331 2.40002 17.0952 2.40002H16.5048C16.2669 2.40002 16.0387 2.49418 15.8701 2.66193C15.7014 2.82968 15.6061 3.05736 15.6048 3.29522L15.6 4.20242C15.5997 4.36155 15.5362 4.51404 15.4234 4.62634C15.3107 4.73863 15.1579 4.80154 14.9988 4.80122C14.8397 4.80091 14.6872 4.73739 14.5749 4.62464C14.4626 4.51189 14.3997 4.35915 14.4 4.20002V3.30002C14.4 3.06133 14.3052 2.83241 14.1364 2.66363C13.9676 2.49485 13.7387 2.40002 13.5 2.40002H12.6ZM7.79999 6.00002C7.10505 6.00004 6.42496 6.2012 5.84182 6.57922C5.25869 6.95724 4.79743 7.49597 4.51372 8.13037C4.23002 8.76477 4.136 9.46772 4.24301 10.1544C4.35003 10.841 4.6535 11.482 5.11679 12H4.79999C4.48173 12 4.17651 12.1265 3.95147 12.3515C3.72642 12.5765 3.59999 12.8818 3.59999 13.2C3.59999 13.5183 3.72642 13.8235 3.95147 14.0486C4.17651 14.2736 4.48173 14.4 4.79999 14.4H5.42399C4.97759 16.5576 3.80039 17.8032 3.14399 18.3516C2.72879 18.6996 2.39999 19.2348 2.39999 19.8588C2.39999 20.82 3.17999 21.6 4.14119 21.6H11.46C12.42 21.6 13.2 20.82 13.2 19.8588C13.2 19.2348 12.8712 18.6996 12.456 18.3516C11.7996 17.8032 10.6224 16.5576 10.176 14.4H10.8C11.1183 14.4 11.4235 14.2736 11.6485 14.0486C11.8736 13.8235 12 13.5183 12 13.2C12 12.8818 11.8736 12.5765 11.6485 12.3515C11.4235 12.1265 11.1183 12 10.8 12H10.4832C10.9465 11.482 11.25 10.841 11.357 10.1544C11.464 9.46772 11.37 8.76477 11.0863 8.13037C10.8026 7.49597 10.3413 6.95724 9.75817 6.57922C9.17503 6.2012 8.49494 6.00004 7.79999 6.00002Z" fill="white"/>
</svg>
