<?xml version="1.0" encoding="UTF-8"?>
<svg xmlns="http://www.w3.org/2000/svg" version="1.1" viewBox="0 0 654 178.9">
  <defs>
    <style>
      .cls-1 {
        fill: #fff;
      }

      .cls-2 {
        fill: #010101;
      }

      .cls-3 {
        fill: #0fa0db;
      }
    </style>
  </defs>
  <!-- Generator: Adobe Illustrator 28.7.0, SVG Export Plug-In . SVG Version: 1.2.0 Build 136)  -->
  <g>
    <g id="Layer_1">
      <g>
        <rect class="cls-3" x="255.7" y="4.5" width="390.3" height="169.9" rx="84.9" ry="84.9"/>
        <g>
          <path class="cls-2" d="M62.2,19.4h9.5l54.2,132.5h-10.9l-17.3-42.7h-62.4l-17.1,42.7H8L62.2,19.4ZM94.2,100.3l-27.6-68.7-27.6,68.7h55.2Z"/>
          <path class="cls-2" d="M121.6,19.4h10.9l48.5,120.8,48.3-120.8h10.3l-54.2,132.5h-9.5L121.6,19.4Z"/>
        </g>
        <g>
          <path class="cls-1" d="M323.1,44.2h37.2c21.7,0,34.8,12.9,34.8,31.5v.3c0,21.1-16.4,32-36.8,32h-15.2v27.3h-20V44.2ZM359,90.1c10,0,15.9-6,15.9-13.8v-.3c0-9-6.2-13.8-16.2-13.8h-15.5v27.8h15.9Z"/>
          <path class="cls-1" d="M407.4,44.2h41.6c11.6,0,20.5,3.2,26.5,9.2,5.1,5.1,7.8,12.2,7.8,20.8v.3c0,14.7-7.9,23.9-19.5,28.2l22.2,32.5h-23.4l-19.5-29.1h-15.7v29.1h-20V44.2ZM447.7,88.4c9.8,0,15.3-5.2,15.3-12.9v-.3c0-8.6-6-13-15.7-13h-19.9v26.1h20.3Z"/>
          <path class="cls-1" d="M497.3,90v-.3c0-25.9,20.4-47.1,48.5-47.1s48.2,20.9,48.2,46.8v.3c0,25.9-20.4,47.1-48.5,47.1s-48.2-20.9-48.2-46.8ZM573.1,90v-.3c0-15.6-11.4-28.6-27.6-28.6s-27.3,12.7-27.3,28.3v.3c0,15.6,11.4,28.6,27.6,28.6s27.3-12.7,27.3-28.3Z"/>
        </g>
      </g>
    </g>
  </g>
</svg>