<svg width="24" height="24" viewBox="0 0 24 24" fill="none" xmlns="http://www.w3.org/2000/svg">
<g clip-path="url(#clip0_6_1572)">
<path d="M3 21H24V24H0V0H3V21ZM6.75 19.5C6.44587 19.5006 6.14477 19.4396 5.8649 19.3205C5.58502 19.2015 5.33219 19.027 5.12167 18.8075C4.91115 18.588 4.74731 18.3281 4.64006 18.0435C4.5328 17.7589 4.48436 17.4555 4.49766 17.1517C4.51095 16.8478 4.58571 16.5498 4.71741 16.2757C4.84911 16.0015 5.03502 15.7569 5.2639 15.5567C5.49279 15.3564 5.7599 15.2046 6.0491 15.1105C6.3383 15.0164 6.64358 14.9818 6.9465 15.009L9.3645 10.9785C9.1434 10.639 9.0181 10.246 9.00182 9.84115C8.98554 9.43629 9.07888 9.03455 9.272 8.67835C9.46512 8.32215 9.75084 8.02471 10.099 7.81743C10.4472 7.61016 10.8448 7.50074 11.25 7.50074C11.6552 7.50074 12.0528 7.61016 12.401 7.81743C12.7492 8.02471 13.0349 8.32215 13.228 8.67835C13.4211 9.03455 13.5145 9.43629 13.4982 9.84115C13.4819 10.246 13.3566 10.639 13.1355 10.9785L15.5535 15.009C15.6682 14.9987 15.7836 14.9977 15.8985 15.006L19.8915 8.019C19.6046 7.59868 19.4686 7.0935 19.5058 6.58594C19.543 6.07837 19.7511 5.59841 20.0963 5.22442C20.4415 4.85043 20.9032 4.60449 21.4062 4.52678C21.9091 4.44906 22.4236 4.54415 22.8655 4.79653C23.3075 5.0489 23.6508 5.44364 23.8395 5.91631C24.0281 6.38897 24.051 6.91163 23.9043 7.39896C23.7576 7.88628 23.45 8.30948 23.0317 8.59945C22.6135 8.88942 22.1093 9.02903 21.6015 8.9955L17.6085 15.9825C17.8379 16.319 17.9717 16.7114 17.9956 17.118C18.0195 17.5245 17.9326 17.9299 17.7442 18.291C17.5558 18.652 17.2729 18.9552 16.9258 19.1681C16.5786 19.381 16.1802 19.4957 15.7729 19.4999C15.3657 19.5041 14.965 19.3978 14.6134 19.1922C14.2619 18.9865 13.9728 18.6893 13.7769 18.3323C13.581 17.9753 13.4857 17.5717 13.5011 17.1648C13.5165 16.7578 13.6421 16.3627 13.8645 16.0215L11.4465 11.991C11.3158 12.0031 11.1842 12.0031 11.0535 11.991L8.6355 16.0215C8.85679 16.3611 8.98226 16.7541 8.99864 17.159C9.01503 17.564 8.92172 17.9659 8.72858 18.3222C8.53544 18.6785 8.24963 18.9761 7.90137 19.1834C7.5531 19.3907 7.1553 19.5001 6.75 19.5Z" fill="white"/>
</g>
<defs>
<clipPath id="clip0_6_1572">
<rect width="24" height="24" fill="white"/>
</clipPath>
</defs>
</svg>
