<svg width="32" height="32" viewBox="0 0 32 32" fill="none" xmlns="http://www.w3.org/2000/svg">
<path d="M3.2002 27.2C3.2002 28.0837 3.91646 28.8 4.8002 28.8H6.93353V25.0667H4.26686C4.26686 25.0667 3.2002 25.0667 3.2002 27.2Z" fill="#4B84DD"/>
<path d="M28.7999 6.4V29.3333C28.7999 30.5115 27.8447 31.4667 26.6666 31.4667H8.53324C7.3551 31.4667 6.3999 30.5115 6.3999 29.3333V2.66667C6.3999 1.48853 7.3551 0.533333 8.53324 0.533333H22.9332L28.7999 6.4Z" fill="#E8ECEF"/>
<path d="M28.7998 6.4H23.4664C23.1731 6.4 22.9331 6.16 22.9331 5.86667V0.533333L28.7998 6.4Z" fill="#C7D0DD"/>
<path d="M4.8002 25.6H24.0002C24.8839 25.6 25.6002 24.8837 25.6002 24V16.5333C25.6002 15.6496 24.8839 14.9333 24.0002 14.9333H4.8002C3.91646 14.9333 3.2002 15.6496 3.2002 16.5333V27.2C3.2002 26.3163 3.91646 25.6 4.8002 25.6Z" fill="#11A0DB"/>
<path d="M6 23.3578V18.0604H7.87653C8.25181 18.0604 8.60127 18.1165 8.9248 18.22C9.24834 18.3279 9.54167 18.4832 9.80484 18.6903C10.068 18.8973 10.2751 19.1734 10.426 19.5185C10.577 19.8636 10.6547 20.2605 10.6547 20.7091C10.6547 21.1577 10.577 21.5546 10.426 21.8997C10.2751 22.2448 10.068 22.5209 9.80484 22.7279C9.54171 22.935 9.24834 23.0903 8.9248 23.1982C8.60127 23.3017 8.25186 23.3578 7.87653 23.3578H6ZM7.32435 22.206H7.7169C7.92828 22.206 8.12672 22.1801 8.30357 22.1327C8.48474 22.0809 8.64865 21.999 8.80395 21.8911C8.95925 21.7832 9.08002 21.628 9.1663 21.4252C9.25691 21.2268 9.30001 20.9852 9.30001 20.7091C9.30001 20.433 9.25687 20.1915 9.1663 19.9887C9.08002 19.7902 8.95925 19.6349 8.80395 19.5271C8.64865 19.415 8.48474 19.3373 8.30357 19.2855C8.12672 19.2381 7.92828 19.2122 7.7169 19.2122H7.32435V22.206ZM13.8685 23.4182C13.0704 23.4182 12.4104 23.1594 11.8884 22.646C11.3664 22.1327 11.1076 21.4856 11.1076 20.7091C11.1076 19.9326 11.3664 19.2856 11.8884 18.7722C12.4104 18.2589 13.0704 18.0001 13.8685 18.0001C14.6536 18.0001 15.305 18.2589 15.8269 18.7722C16.3446 19.2856 16.6034 19.9327 16.6034 20.7091C16.6034 21.4856 16.3446 22.1327 15.8269 22.646C15.305 23.1594 14.6536 23.4182 13.8685 23.4182ZM12.8504 21.8264C13.1135 22.1197 13.45 22.2664 13.8598 22.2664C14.2696 22.2664 14.6018 22.1197 14.8649 21.8264C15.1281 21.5287 15.2575 21.1577 15.2575 20.7091C15.2575 20.2605 15.1281 19.8895 14.8649 19.5918C14.6018 19.2985 14.2696 19.1518 13.8598 19.1518C13.45 19.1518 13.1135 19.2985 12.8504 19.5918C12.5872 19.8895 12.4535 20.2605 12.4535 20.7091C12.4535 21.1577 12.5872 21.5287 12.8504 21.8264ZM19.7525 23.4182C18.9803 23.4182 18.3376 23.1766 17.8286 22.7021C17.3152 22.2233 17.0607 21.5589 17.0607 20.7091C17.0607 19.8636 17.3196 19.1993 17.8372 18.7204C18.3592 18.2416 18.9933 18 19.7526 18C20.4384 18 20.9992 18.1682 21.4436 18.509C21.8836 18.8455 22.1381 19.2941 22.2028 19.8549L20.8655 20.1267C20.8094 19.8334 20.6757 19.5961 20.4686 19.4192C20.2616 19.2424 20.02 19.1518 19.7439 19.1518C19.3643 19.1518 19.0494 19.2855 18.7948 19.5573C18.5403 19.8333 18.4109 20.213 18.4109 20.7091C18.4109 21.2052 18.5403 21.5848 18.7905 21.8566C19.045 22.1326 19.36 22.2664 19.7439 22.2664C20.0199 22.2664 20.2572 22.1887 20.4513 22.0334C20.6454 21.8781 20.7663 21.6711 20.818 21.4123L22.1855 21.7229C22.0604 22.2578 21.7843 22.6719 21.3529 22.9695C20.9259 23.2672 20.391 23.4182 19.7525 23.4182Z" fill="white"/>
</svg>
