<svg width="32" height="32" viewBox="0 0 32 32" fill="none" xmlns="http://www.w3.org/2000/svg">
<path d="M8 0C6.9 0 6 0.9 6 2V30C6 31.1 6.9 32 8 32H28C29.1 32 30 31.1 30 30V8L22 0H8Z" fill="#E8ECEF"/>
<path d="M24 8H30L22 0V6C22 7.1 22.9 8 24 8Z" fill="#C7D0DD"/>
<path d="M26 26C26 26.55 25.55 27 25 27H3C2.45 27 2 26.55 2 26V16C2 15.45 2.45 15 3 15H25C25.55 15 26 15.45 26 16V26Z" fill="#039205"/>
<path d="M9.02105 20.387L10.4121 18.644C10.8281 18.1 11.6361 18.795 11.1801 19.315C10.7011 19.883 10.1971 20.499 9.71705 21.13L11.3481 23.161C11.7881 23.761 10.9091 24.336 10.4771 23.744L9.00505 21.857L7.55805 23.785C7.15005 24.368 6.24605 23.713 6.70205 23.169L8.30905 21.13C7.80505 20.498 7.31705 19.883 6.83005 19.315C6.32705 18.715 7.26205 18.1 7.63005 18.661L9.02105 20.387Z" fill="white"/>
<path d="M12.335 18.947C12.335 18.683 12.559 18.459 12.839 18.459C13.095 18.459 13.311 18.684 13.311 18.947V22.953H15.486C16.269 22.953 16.286 24 15.486 24H12.84C12.56 24 12.336 23.801 12.336 23.513V18.947H12.335Z" fill="white"/>
<path d="M17.002 19.667C17.186 18.115 19.528 17.836 20.632 18.684C21.176 19.123 20.6 19.819 20.12 19.467C19.528 19.092 18.185 18.916 18.017 19.746C17.801 21.058 21.279 20.307 21.223 22.434C21.167 24.465 18.225 24.512 17.121 23.601C16.856 23.385 16.865 23.034 17.009 22.817C17.217 22.61 17.448 22.538 17.721 22.762C18.376 23.209 20.064 23.545 20.183 22.409C20.08 21.227 16.754 21.938 17.002 19.667Z" fill="white"/>
<path d="M25 27H6V28H25C25.55 28 26 27.55 26 27V26C26 26.55 25.55 27 25 27Z" fill="#CAD1D8"/>
</svg>
