<?xml version="1.0" encoding="UTF-8"?>
<svg xmlns="http://www.w3.org/2000/svg" version="1.1" viewBox="0 0 28 28">
  <!-- Generator: Adobe Illustrator 28.7.0, SVG Export Plug-In . SVG Version: 1.2.0 Build 136)  -->
  <g>
    <g id="Layer_1">
      <g id="favorite">
        <path id="Path_18" style="fill: #00a1de;" class="cls-1" d="M14,25.4l-1.8-1.6c-1.6-1.5-2.8-2.6-3.5-3.3s-1.7-1.7-2.7-2.8c-.8-.9-1.6-1.9-2.3-2.9-.5-.8-.9-1.7-1.3-2.5-.4-.9-.5-1.9-.5-2.8,0-1.8.7-3.6,1.9-4.9,1.2-1.3,2.9-2,4.7-2,2.1,0,4.2.9,5.5,2.6,1.3-1.7,3.3-2.7,5.5-2.6,1.8,0,3.5.7,4.8,2,1.3,1.3,2,3,1.9,4.9,0,1-.2,1.9-.6,2.8-.3.9-.8,1.7-1.3,2.5-.7,1-1.5,2-2.3,2.9-1.1,1.2-2,2.1-2.7,2.8s-1.9,1.8-3.6,3.4l-1.8,1.6Z"/>
      </g>
    </g>
  </g>
</svg>