<?xml version="1.0" encoding="UTF-8"?>
<svg xmlns="http://www.w3.org/2000/svg" version="1.1" xmlns:xlink="http://www.w3.org/1999/xlink" viewBox="0 0 20 20">
  <defs>
    <clipPath id="clippath">
      <rect class="cls-1" width="20" height="20" style="fill: none;"/>
    </clipPath>
  </defs>
  <!-- Generator: Adobe Illustrator 28.7.0, SVG Export Plug-In . SVG Version: 1.2.0 Build 136)  -->
  <g>
    <g id="Layer_1">
      <g class="cls-3" style="clip-path: url(#clippath);">
        <g id="Artboard_2">
          <g id="notification-line">
            <path id="Path_109" class="cls-2" style="fill: #798398;" d="M18.6,15.6c-.5-.5-1-1-1.4-1.6-.4-.8-.7-1.8-.8-2.7v-2.8c0-3.1-2.3-5.7-5.3-6v-.7c0-.4-.3-.8-.8-.8s-.8.3-.8.8v.7c-3,.4-5.3,3-5.2,6v2.8c0,.9-.3,1.9-.8,2.7-.4.6-.9,1.2-1.4,1.6-.1.1-.2.3-.2.4v.8c0,.3.3.6.6.6h15.6c.3,0,.6-.3.6-.6h0v-.8c0-.2,0-.3-.2-.4ZM3.2,16.3c.5-.5,1-1.1,1.4-1.7.5-1,.9-2.1.9-3.3v-2.8c0-2.7,2-5,4.7-5.1s5,2,5.1,4.7c0,.1,0,.2,0,.3v2.8c0,1.1.4,2.3.9,3.3.4.6.8,1.2,1.4,1.7H3.2Z"/>
            <path id="Path_110" class="cls-2" style="fill: #798398;" d="M10.4,19.3c.7,0,1.3-.6,1.4-1.3h-3c.1.7.8,1.3,1.5,1.3Z"/>
          </g>
        </g>
      </g>
    </g>
  </g>
</svg>