<?xml version="1.0" encoding="UTF-8"?>
<svg version="1.1" xmlns="http://www.w3.org/2000/svg" width="512" height="731">
<path d="M0 0 C168.96 0 337.92 0 512 0 C512 241.23 512 482.46 512 731 C343.04 731 174.08 731 0 731 C0 489.77 0 248.54 0 0 Z " fill="#E9E9E9" transform="translate(0,0)"/>
<path d="M0 0 C0.33 0 0.66 0 1 0 C1 189.42 1 378.84 1 574 C169.3 574 337.6 574 511 574 C512.051875 500.966875 513.10375 427.93375 514.1875 352.6875 C514.6724292 329.73147217 515.1573584 306.77544434 515.65698242 283.1237793 C515.8077945 262.32552619 515.8077945 262.32552619 515.87983704 241.52693176 C515.91374166 232.34217196 516.10757098 223.17896436 516.41511536 213.99971008 C519.7413712 152.81984883 519.7413712 152.81984883 492.86031348 100.3378244 C481.56955343 88.39689634 468.86244943 77.95277219 455.55527666 68.34898911 C448.78895324 63.45230233 442.743171 57.89618603 436.859375 51.98876953 C436.30225327 51.43340012 435.74513153 50.8780307 435.17112732 50.30583191 C433.36159047 48.50063653 431.55566476 46.69188031 429.75 44.8828125 C428.48362567 43.61711276 427.21710301 42.35156141 425.95043945 41.08615112 C423.31315241 38.45033 420.67766199 35.81272932 418.04345703 33.17382812 C414.65947358 29.78410685 411.27096489 26.39895007 407.88113403 23.01507759 C405.27322161 20.41076582 402.66767953 17.80409313 400.06286621 15.19668198 C398.81320681 13.94635405 397.56280016 12.69677251 396.31164551 11.44794083 C394.57383 9.71264809 392.83922343 7.97421191 391.10546875 6.23486328 C390.58504501 5.71646378 390.06462128 5.19806427 389.52842712 4.66395569 C386 1.11427092 386 1.11427092 386 0 C427.58 0 469.16 0 512 0 C512 241.23 512 482.46 512 731 C343.04 731 174.08 731 0 731 C0 489.77 0 248.54 0 0 Z " fill="#D7251C" transform="translate(0,0)"/>
<path d="M0 0 C41.58 0 83.16 0 126 0 C126 189.09 126 378.18 126 573 C125.67 573 125.34 573 125 573 C125.02028753 572.07233312 125.04057506 571.14466625 125.06147736 570.18888825 C126.26454242 514.93325368 127.14594419 459.67983327 127.63067217 404.41301508 C127.6894279 397.74447859 127.75070374 391.07596805 127.8137207 384.4074707 C127.81994064 383.74400112 127.82616059 383.08053153 127.83256901 382.39695681 C128.04050597 360.36660068 128.45869642 338.34702228 128.97020956 316.32138678 C129.47616393 294.33003412 129.75065152 272.34411013 129.82025415 250.34701806 C129.8656406 238.01970125 130.01131711 225.71202312 130.42326927 213.39104271 C133.68334458 152.53355363 133.68334458 152.53355363 106.86031348 100.35225683 C95.56728366 88.41033459 82.8605181 77.96195458 69.55527666 68.3514379 C62.79063969 63.45197672 56.74343833 57.89645443 50.859375 51.98876953 C50.30225327 51.43340012 49.74513153 50.8780307 49.17112732 50.30583191 C47.36159047 48.50063653 45.55566476 46.69188031 43.75 44.8828125 C42.48362567 43.61711276 41.21710301 42.35156141 39.95043945 41.08615112 C37.31315241 38.45033 34.67766199 35.81272932 32.04345703 33.17382812 C28.65947358 29.78410685 25.27096489 26.39895007 21.88113403 23.01507759 C19.27322161 20.41076582 16.66767953 17.80409313 14.06286621 15.19668198 C12.81320681 13.94635405 11.56280016 12.69677251 10.31164551 11.44794083 C8.57383 9.71264809 6.83922343 7.97421191 5.10546875 6.23486328 C4.58504501 5.71646378 4.06462128 5.19806427 3.52842712 4.66395569 C0 1.11427092 0 1.11427092 0 0 Z " fill="#000000" transform="translate(386,0)"/>
<path d="M0 0 C4.11377693 2.05688847 6.75900766 4.49675458 9.92675781 7.71557617 C10.50945938 8.29959198 11.09216095 8.88360779 11.69252014 9.48532104 C13.61735925 11.41664872 15.53512207 13.35485399 17.453125 15.29296875 C18.79536665 16.64148521 20.13812769 17.98948487 21.48138428 19.33699036 C25.02039394 22.88930682 28.55380444 26.44713644 32.08563232 30.0065918 C37.72275334 35.68679281 43.36646931 41.36041949 49.01363373 47.03063393 C50.97680508 49.00394826 52.93647781 50.98068706 54.89581299 52.95780945 C60.10678318 58.2037808 65.29636634 63.36997317 70.93231201 68.16285706 C76.03260687 72.69447438 80.77551152 77.6330952 85.59375 82.4609375 C86.79286364 83.65937645 87.9921256 84.85766701 89.19152832 86.05581665 C91.68757985 88.55040294 94.181836 91.04676658 96.67480469 93.54443359 C99.87718489 96.75255393 103.08409246 99.95610542 106.29232025 103.15837669 C108.76126329 105.62371919 111.22783586 108.09142217 113.69367981 110.55986404 C114.87635317 111.74320585 116.05977357 112.92580152 117.24394226 114.10764694 C118.88835941 115.74954127 120.52956573 117.39457721 122.16992188 119.04052734 C122.6622934 119.53087463 123.15466492 120.02122192 123.66195679 120.52642822 C127 123.88572851 127 123.88572851 127 125 C85.09 125 43.18 125 0 125 C0 83.75 0 42.5 0 0 Z " fill="#C9C9C9" transform="translate(384,2)"/>
<path d="M0 0 C97.68 0 195.36 0 296 0 C296 8.91 296 17.82 296 27 C198.32 27 100.64 27 0 27 C0 18.09 0 9.18 0 0 Z " fill="#C9C9C9" transform="translate(108,395)"/>
<path d="M0 0 C97.68 0 195.36 0 296 0 C296 8.91 296 17.82 296 27 C198.32 27 100.64 27 0 27 C0 18.09 0 9.18 0 0 Z " fill="#C9C9C9" transform="translate(108,266)"/>
<path d="M0 0 C97.68 0 195.36 0 296 0 C296 8.91 296 17.82 296 27 C198.32 27 100.64 27 0 27 C0 18.09 0 9.18 0 0 Z " fill="#C9C9C9" transform="translate(108,202)"/>
<path d="M0 0 C97.02 0 194.04 0 294 0 C294 8.58 294 17.16 294 26 C196.98 26 99.96 26 0 26 C0 17.42 0 8.84 0 0 Z " fill="#C9C9C9" transform="translate(109,331)"/>
<path d="M0 0 C65.34 0 130.68 0 198 0 C198 8.91 198 17.82 198 27 C132.66 27 67.32 27 0 27 C0 18.09 0 9.18 0 0 Z " fill="#C9C9C9" transform="translate(108,459)"/>
<path d="M0 0 C50.34763948 0 50.34763948 0 60.96875 9.8203125 C70.44207117 20.05631631 72.59626985 31.42611584 72.375 45.1171875 C71.39001283 55.31590881 67.37961878 64.81263581 60 72 C42.45152007 86.35497277 22.68962377 82 0 82 C0 54.94 0 27.88 0 0 Z " fill="#FEFCFC" transform="translate(224,608)"/>
<path d="M0 0 C47.5125 0 47.5125 0 56 7 C62.38752518 14.09417113 63.47014991 19.79616545 63.26953125 29.26171875 C62.70050446 37.15387295 59.22306958 41.28712571 53.48828125 46.45703125 C45.83365408 51.2036211 38.24066057 51.39281623 29.4375 51.1875 C25.663125 51.125625 21.88875 51.06375 18 51 C18 61.23 18 71.46 18 82 C12.06 82 6.12 82 0 82 C0 54.94 0 27.88 0 0 Z " fill="#FEFCFC" transform="translate(145,608)"/>
<path d="M0 0 C18.81 0 37.62 0 57 0 C57 4.62 57 9.24 57 14 C43.8 14 30.6 14 17 14 C17 20.93 17 27.86 17 35 C29.54 35 42.08 35 55 35 C55 39.62 55 44.24 55 49 C42.46 49 29.92 49 17 49 C17 59.89 17 70.78 17 82 C11.39 82 5.78 82 0 82 C0 54.94 0 27.88 0 0 Z " fill="#FEFEFE" transform="translate(314,608)"/>
<path d="M0 0 C20.62857143 0 20.62857143 0 28.1875 5.1875 C33.73592808 10.73592808 36.13858468 17.27271245 36.25 25.0625 C36.17360052 33.63834219 34.60629082 41.27245101 29 48 C19.21142916 55.49762873 13.73604431 54 0 54 C0 36.18 0 18.36 0 0 Z " fill="#D9281F" transform="translate(242,622)"/>
<path d="M0 0 C3.01125 -0.0825 6.0225 -0.165 9.125 -0.25 C10.06230957 -0.28641602 10.99961914 -0.32283203 11.96533203 -0.36035156 C17.5015014 -0.43345966 20.61058179 0.30796599 25 4 C27.49005677 6.49005677 27.29703766 7.37470732 27.3125 10.8125 C27.22170868 15.00705891 26.85119969 17.74148606 24 21 C20.98322829 22.85315977 18.74997919 23.24038435 15.234375 23.1953125 C14.43225586 23.19031738 13.63013672 23.18532227 12.80371094 23.18017578 C11.79598633 23.16196777 10.78826172 23.14375977 9.75 23.125 C6.5325 23.08375 3.315 23.0425 0 23 C0 15.41 0 7.82 0 0 Z " fill="#D9271E" transform="translate(163,622)"/>
</svg>
